<svg xmlns="http://www.w3.org/2000/svg" xmlns:xlink="http://www.w3.org/1999/xlink" width="500" zoomAndPan="magnify" viewBox="0 0 375 374.999991" height="500" preserveAspectRatio="xMidYMid meet" version="1.0"><path fill="#364548" d="M 195.828125 124.203125 L 233.511719 124.203125 L 233.511719 162.734375 L 252.570312 162.734375 C 261.375 162.734375 258.546875 175.566406 266.875 172.738281 C 270.964844 171.355469 275.558594 169.417969 279.601562 166.988281 C 274.285156 160.042969 271.5625 151.28125 270.765625 142.628906 C 269.675781 130.871094 272.054688 115.5625 280 106.359375 L 283.96875 101.777344 L 288.683594 105.574219 C 300.566406 115.117188 310.570312 128.460938 312.324219 143.675781 C 326.632812 139.464844 343.429688 140.460938 356.046875 147.746094 L 361.226562 150.730469 L 358.507812 156.046875 C 347.839844 176.871094 325.539062 183.3125 303.730469 182.175781 C 271.101562 263.445312 211.949219 287.515625 125.820312 287.515625 C 81.328125 287.515625 40.492188 270.886719 17.257812 231.402344 L 16.871094 230.757812 L 13.476562 223.871094 C 5.621094 206.488281 3.007812 187.460938 4.777344 168.433594 L 5.3125 162.730469 L 37.542969 162.730469 L 37.542969 124.203125 L 75.226562 124.203125 L 75.226562 86.515625 L 150.597656 86.515625 L 150.597656 48.832031 L 195.828125 48.832031 Z M 195.828125 124.203125 " fill-opacity="1" fill-rule="nonzero"/><path fill="#22a0c8" d="M 306.035156 152.867188 C 308.558594 133.222656 293.863281 117.808594 284.75 110.476562 C 274.253906 122.617188 272.609375 154.449219 289.101562 167.851562 C 279.910156 176.011719 272.410156 169.019531 252.570312 169.019531 L 11.046875 169.019531 C 9.125 189.734375 12.753906 208.808594 21.050781 225.132812 L 23.804688 230.15625 C 25.539062 233.109375 27.445312 235.964844 29.488281 238.703125 C 39.417969 239.347656 48.578125 239.5625 56.953125 239.378906 C 73.414062 239.007812 86.847656 237.074219 97.019531 233.539062 C 98.558594 233.0625 100.171875 233.921875 100.648438 235.445312 C 101.109375 236.902344 100.339844 238.472656 98.910156 239.007812 C 97.558594 239.484375 96.144531 239.917969 94.683594 240.332031 C 86.675781 242.621094 78.070312 244.160156 66.988281 244.851562 C 67.652344 244.867188 66.296875 244.941406 66.296875 244.941406 C 65.914062 244.972656 65.4375 245.019531 65.070312 245.035156 C 60.703125 245.28125 56 245.328125 51.175781 245.328125 C 45.902344 245.328125 40.722656 245.234375 34.914062 244.925781 L 34.761719 245.019531 C 54.878906 267.640625 86.355469 281.199219 125.789062 281.199219 C 209.257812 281.199219 268.183594 258.605469 299.535156 175.519531 C 321.773438 177.808594 343.152344 172.125 352.882812 153.140625 C 337.421875 144.242188 317.5 147.101562 306.035156 152.867188 Z M 306.035156 152.867188 " fill-opacity="1" fill-rule="nonzero"/><path fill="#37b1d9" d="M 306.035156 152.867188 C 308.558594 133.222656 293.863281 117.808594 284.75 110.476562 C 274.253906 122.617188 272.609375 154.449219 289.101562 167.851562 C 279.910156 176.011719 272.410156 169.019531 252.570312 169.019531 L 25.339844 169.019531 C 24.355469 200.742188 36.128906 224.808594 56.953125 239.378906 C 73.414062 239.007812 86.847656 237.074219 97.019531 233.539062 C 98.558594 233.0625 100.171875 233.921875 100.648438 235.445312 C 101.109375 236.902344 100.339844 238.472656 98.910156 239.007812 C 97.558594 239.484375 96.144531 239.917969 94.683594 240.332031 C 86.675781 242.621094 77.332031 244.359375 66.25 245.035156 L 65.976562 244.773438 C 94.375 259.34375 135.582031 259.296875 182.792969 241.144531 C 235.738281 220.796875 273.148438 196.453125 307.527344 152.113281 C 307.035156 152.375 306.527344 152.621094 306.035156 152.867188 Z M 306.035156 152.867188 " fill-opacity="1" fill-rule="nonzero"/><path fill="#1b81a5" d="M 11.492188 194.179688 C 13 205.273438 16.242188 215.664062 21.050781 225.117188 L 23.804688 230.140625 C 25.539062 233.09375 27.445312 235.949219 29.488281 238.6875 C 39.417969 239.332031 48.578125 239.546875 56.953125 239.363281 C 73.414062 238.996094 86.847656 237.058594 97.019531 233.523438 C 98.558594 233.046875 100.171875 233.90625 100.648438 235.429688 C 101.109375 236.890625 100.339844 238.457031 98.910156 238.996094 C 97.558594 239.472656 96.144531 239.902344 94.683594 240.316406 C 86.675781 242.605469 77.378906 244.25 66.296875 244.925781 C 65.914062 244.957031 65.253906 244.957031 64.867188 244.972656 C 60.503906 245.21875 55.847656 245.371094 51.019531 245.371094 C 45.75 245.371094 40.371094 245.265625 34.578125 244.972656 C 54.695312 267.597656 86.355469 281.214844 125.804688 281.214844 C 197.269531 281.214844 259.4375 254.085938 295.523438 194.164062 L 11.492188 194.164062 Z M 11.492188 194.179688 " fill-opacity="1" fill-rule="nonzero"/><path fill="#1d91b4" d="M 27.523438 194.179688 C 31.796875 213.664062 42.0625 228.957031 56.96875 239.363281 C 73.429688 238.996094 86.863281 237.058594 97.035156 233.523438 C 98.574219 233.046875 100.1875 233.90625 100.664062 235.429688 C 101.125 236.890625 100.355469 238.457031 98.925781 238.996094 C 97.574219 239.472656 96.160156 239.902344 94.699219 240.316406 C 86.691406 242.605469 77.210938 244.25 66.113281 244.925781 C 94.515625 259.496094 135.597656 259.28125 182.808594 241.144531 C 211.378906 230.171875 238.875 213.835938 263.542969 194.148438 L 27.523438 194.148438 Z M 27.523438 194.179688 " fill-opacity="1" fill-rule="nonzero"/><path fill="#23a3c2" d="M 43.828125 130.488281 L 76.488281 130.488281 L 76.488281 163.148438 L 43.828125 163.148438 Z M 46.550781 133.207031 L 49.132812 133.207031 L 49.132812 160.425781 L 46.550781 160.425781 Z M 51.390625 133.207031 L 54.0625 133.207031 L 54.0625 160.425781 L 51.390625 160.425781 Z M 56.339844 133.207031 L 59.011719 133.207031 L 59.011719 160.425781 L 56.339844 160.425781 Z M 61.289062 133.207031 L 63.960938 133.207031 L 63.960938 160.425781 L 61.289062 160.425781 Z M 66.238281 133.207031 L 68.910156 133.207031 L 68.910156 160.425781 L 66.238281 160.425781 Z M 71.183594 133.207031 L 73.765625 133.207031 L 73.765625 160.425781 L 71.183594 160.425781 Z M 81.511719 92.800781 L 114.171875 92.800781 L 114.171875 125.460938 L 81.496094 125.460938 Z M 84.234375 95.523438 L 86.816406 95.523438 L 86.816406 122.742188 L 84.234375 122.742188 Z M 89.074219 95.523438 L 91.75 95.523438 L 91.75 122.742188 L 89.074219 122.742188 Z M 94.023438 95.523438 L 96.699219 95.523438 L 96.699219 122.742188 L 94.023438 122.742188 Z M 98.972656 95.523438 L 101.644531 95.523438 L 101.644531 122.742188 L 98.972656 122.742188 Z M 103.921875 95.523438 L 106.59375 95.523438 L 106.59375 122.742188 L 103.921875 122.742188 Z M 108.871094 95.523438 L 111.453125 95.523438 L 111.453125 122.742188 L 108.871094 122.742188 Z M 108.871094 95.523438 " fill-opacity="1" fill-rule="nonzero"/><path fill="#34bbde" d="M 81.511719 130.488281 L 114.171875 130.488281 L 114.171875 163.148438 L 81.496094 163.148438 Z M 84.234375 133.207031 L 86.816406 133.207031 L 86.816406 160.425781 L 84.234375 160.425781 Z M 89.074219 133.207031 L 91.75 133.207031 L 91.75 160.425781 L 89.074219 160.425781 Z M 94.023438 133.207031 L 96.699219 133.207031 L 96.699219 160.425781 L 94.023438 160.425781 Z M 98.972656 133.207031 L 101.644531 133.207031 L 101.644531 160.425781 L 98.972656 160.425781 Z M 103.921875 133.207031 L 106.59375 133.207031 L 106.59375 160.425781 L 103.921875 160.425781 Z M 108.871094 133.207031 L 111.453125 133.207031 L 111.453125 160.425781 L 108.871094 160.425781 Z M 108.871094 133.207031 " fill-opacity="1" fill-rule="nonzero"/><path fill="#23a3c2" d="M 119.199219 130.488281 L 151.855469 130.488281 L 151.855469 163.148438 L 119.199219 163.148438 Z M 121.917969 133.207031 L 124.5 133.207031 L 124.5 160.425781 L 121.917969 160.425781 Z M 126.757812 133.207031 L 129.433594 133.207031 L 129.433594 160.425781 L 126.757812 160.425781 Z M 131.707031 133.207031 L 134.382812 133.207031 L 134.382812 160.425781 L 131.707031 160.425781 Z M 136.65625 133.207031 L 139.332031 133.207031 L 139.332031 160.425781 L 136.65625 160.425781 Z M 141.605469 133.207031 L 144.296875 133.207031 L 144.296875 160.425781 L 141.605469 160.425781 Z M 146.554688 133.207031 L 149.136719 133.207031 L 149.136719 160.425781 L 146.554688 160.425781 Z M 146.554688 133.207031 " fill-opacity="1" fill-rule="nonzero"/><path fill="#34bbde" d="M 119.199219 92.800781 L 151.855469 92.800781 L 151.855469 125.460938 L 119.199219 125.460938 Z M 121.917969 95.523438 L 124.5 95.523438 L 124.5 122.742188 L 121.917969 122.742188 Z M 126.757812 95.523438 L 129.433594 95.523438 L 129.433594 122.742188 L 126.757812 122.742188 Z M 131.707031 95.523438 L 134.382812 95.523438 L 134.382812 122.742188 L 131.707031 122.742188 Z M 136.65625 95.523438 L 139.332031 95.523438 L 139.332031 122.742188 L 136.65625 122.742188 Z M 141.605469 95.523438 L 144.296875 95.523438 L 144.296875 122.742188 L 141.605469 122.742188 Z M 146.554688 95.523438 L 149.136719 95.523438 L 149.136719 122.742188 L 146.554688 122.742188 Z M 156.882812 130.488281 L 189.539062 130.488281 L 189.539062 163.148438 L 156.882812 163.148438 Z M 159.601562 133.207031 L 162.183594 133.207031 L 162.183594 160.425781 L 159.601562 160.425781 Z M 164.445312 133.207031 L 167.117188 133.207031 L 167.117188 160.425781 L 164.445312 160.425781 Z M 169.390625 133.207031 L 172.066406 133.207031 L 172.066406 160.425781 L 169.390625 160.425781 Z M 174.339844 133.207031 L 177.015625 133.207031 L 177.015625 160.425781 L 174.339844 160.425781 Z M 179.289062 133.207031 L 181.964844 133.207031 L 181.964844 160.425781 L 179.289062 160.425781 Z M 184.238281 133.207031 L 186.820312 133.207031 L 186.820312 160.425781 L 184.238281 160.425781 Z M 184.238281 133.207031 " fill-opacity="1" fill-rule="nonzero"/><path fill="#23a3c2" d="M 156.882812 92.800781 L 189.539062 92.800781 L 189.539062 125.460938 L 156.882812 125.460938 Z M 159.601562 95.523438 L 162.183594 95.523438 L 162.183594 122.742188 L 159.601562 122.742188 Z M 164.445312 95.523438 L 167.117188 95.523438 L 167.117188 122.742188 L 164.445312 122.742188 Z M 169.390625 95.523438 L 172.066406 95.523438 L 172.066406 122.742188 L 169.390625 122.742188 Z M 174.339844 95.523438 L 177.015625 95.523438 L 177.015625 122.742188 L 174.339844 122.742188 Z M 179.289062 95.523438 L 181.964844 95.523438 L 181.964844 122.742188 L 179.289062 122.742188 Z M 184.238281 95.523438 L 186.820312 95.523438 L 186.820312 122.742188 L 184.238281 122.742188 Z M 184.238281 95.523438 " fill-opacity="1" fill-rule="nonzero"/><path fill="#34bbde" d="M 156.882812 55.117188 L 189.539062 55.117188 L 189.539062 87.777344 L 156.882812 87.777344 Z M 159.601562 57.835938 L 162.183594 57.835938 L 162.183594 85.054688 L 159.601562 85.054688 Z M 164.445312 57.835938 L 167.117188 57.835938 L 167.117188 85.054688 L 164.445312 85.054688 Z M 169.390625 57.835938 L 172.066406 57.835938 L 172.066406 85.054688 L 169.390625 85.054688 Z M 174.339844 57.835938 L 177.015625 57.835938 L 177.015625 85.054688 L 174.339844 85.054688 Z M 179.289062 57.835938 L 181.964844 57.835938 L 181.964844 85.054688 L 179.289062 85.054688 Z M 184.238281 57.835938 L 186.820312 57.835938 L 186.820312 85.054688 L 184.238281 85.054688 Z M 184.238281 57.835938 " fill-opacity="1" fill-rule="nonzero"/><path fill="#23a3c2" d="M 207.230469 130.488281 L 239.890625 130.488281 L 239.890625 163.148438 L 207.230469 163.148438 Z M 209.949219 133.207031 L 212.53125 133.207031 L 212.53125 160.425781 L 209.949219 160.425781 Z M 214.792969 133.207031 L 217.464844 133.207031 L 217.464844 160.425781 L 214.792969 160.425781 Z M 219.742188 133.207031 L 222.414062 133.207031 L 222.414062 160.425781 L 219.742188 160.425781 Z M 224.6875 133.207031 L 227.363281 133.207031 L 227.363281 160.425781 L 224.6875 160.425781 Z M 229.636719 133.207031 L 232.3125 133.207031 L 232.3125 160.425781 L 229.636719 160.425781 Z M 234.585938 133.207031 L 237.167969 133.207031 L 237.167969 160.425781 L 234.585938 160.425781 Z M 234.585938 133.207031 " fill-opacity="1" fill-rule="nonzero"/><path fill="#d3ecec" d="M 112.128906 216.109375 C 117.109375 216.046875 121.195312 220.027344 121.257812 225.007812 C 121.320312 229.988281 117.339844 234.074219 112.359375 234.136719 C 112.28125 234.136719 112.1875 234.136719 112.113281 234.136719 C 107.132812 234.074219 103.152344 229.988281 103.230469 225.007812 C 103.304688 220.105469 107.242188 216.171875 112.128906 216.109375 Z M 112.128906 216.109375 " fill-opacity="1" fill-rule="nonzero"/><path fill="#364548" d="M 112.128906 218.660156 C 112.957031 218.660156 113.742188 218.816406 114.464844 219.089844 C 113.203125 219.828125 112.773438 221.425781 113.511719 222.6875 C 113.988281 223.503906 114.847656 223.992188 115.785156 223.992188 C 116.785156 223.992188 117.644531 223.441406 118.089844 222.625 C 119.457031 225.914062 117.890625 229.695312 114.601562 231.0625 C 111.3125 232.429688 107.53125 230.863281 106.164062 227.574219 C 104.796875 224.285156 106.363281 220.503906 109.652344 219.136719 C 110.4375 218.828125 111.28125 218.660156 112.128906 218.660156 Z M 112.128906 218.660156 " fill-opacity="1" fill-rule="nonzero"/><path fill="#bdd9d7" d="M 136.074219 281.027344 C 113.757812 270.441406 101.507812 256.039062 94.699219 240.332031 C 86.414062 242.699219 76.441406 244.203125 64.867188 244.867188 C 60.503906 245.109375 55.925781 245.234375 51.113281 245.234375 C 45.566406 245.234375 39.710938 245.066406 33.578125 244.742188 C 54.050781 265.199219 79.222656 280.9375 125.835938 281.230469 C 129.265625 281.230469 132.675781 281.167969 136.074219 281.027344 Z M 136.074219 281.027344 " fill-opacity="1" fill-rule="nonzero"/><path fill="#d3ecec" d="M 102.984375 254.839844 C 99.894531 250.644531 96.898438 245.386719 94.699219 240.332031 C 86.414062 242.699219 76.441406 244.21875 64.867188 244.867188 C 72.828125 249.183594 84.203125 253.179688 102.984375 254.839844 Z M 102.984375 254.839844 " fill-opacity="1" fill-rule="nonzero"/><path fill="#000000" d="M 130.234375 306.496094 C 87.429688 306.496094 54.386719 293.046875 32.054688 266.503906 C 10.707031 241.113281 0.136719 202.046875 5.730469 169.265625 C 6.683594 163.730469 11.476562 159.675781 17.085938 159.675781 L 251.9375 159.675781 C 256.011719 159.828125 259.453125 159.351562 262.417969 158.738281 C 256.410156 139.277344 261.191406 116.839844 270.457031 102.761719 L 275.515625 95.140625 C 277.203125 92.585938 279.847656 90.820312 282.84375 90.207031 C 285.871094 89.589844 288.960938 90.21875 291.511719 91.910156 L 299.074219 96.953125 C 311.386719 106.433594 319.5 116.949219 323.632812 128.519531 C 336.882812 127.90625 351.914062 130.042969 360.84375 136.082031 L 367.988281 140.878906 C 372.769531 144.074219 374.445312 150.3125 371.9375 155.492188 L 371.15625 157.121094 C 369.878906 159.75 368.019531 163.5625 367.160156 165.160156 C 353.695312 190.859375 329.472656 195.128906 315.242188 195.714844 C 282.738281 267.242188 217.34375 306.496094 130.234375 306.496094 Z M 27.398438 182.726562 C 26.09375 206.933594 34.515625 233.601562 49.714844 251.660156 C 67.464844 272.746094 94.546875 283.425781 130.246094 283.425781 C 210.242188 283.425781 269.472656 246.648438 297.015625 179.855469 C 298.828125 175.472656 303.023438 172.707031 307.894531 172.722656 C 322.296875 173.015625 338.035156 171.0625 346.71875 154.523438 C 341.539062 152.144531 328.582031 150.269531 317.039062 152.417969 C 313.96875 153.035156 310.738281 152.296875 308.171875 150.453125 C 305.605469 148.609375 303.914062 145.796875 303.484375 142.675781 C 302.242188 133.609375 297.261719 125.445312 288.300781 117.839844 C 282.0625 129.242188 280.109375 147.300781 287.777344 159.121094 C 289.53125 161.808594 290.070312 165.128906 289.285156 168.25 C 288.5 171.371094 286.425781 174.011719 283.597656 175.550781 C 279.433594 177.808594 268.214844 183.144531 251.769531 182.742188 L 27.398438 182.742188 Z M 27.398438 182.726562 " fill-opacity="1" fill-rule="nonzero"/><path fill="#000000" d="M 248.820312 182.636719 L 30.828125 182.636719 C 24.464844 182.636719 19.300781 177.472656 19.300781 171.109375 L 19.300781 127.859375 C 19.300781 121.496094 24.464844 116.332031 30.828125 116.332031 L 248.820312 116.332031 C 255.179688 116.332031 260.34375 121.496094 260.34375 127.859375 L 260.34375 171.109375 C 260.34375 177.472656 255.179688 182.636719 248.820312 182.636719 Z M 42.351562 159.582031 L 237.292969 159.582031 L 237.292969 139.386719 L 42.351562 139.386719 Z M 42.351562 159.582031 " fill-opacity="1" fill-rule="nonzero"/><path fill="#000000" d="M 203.710938 139.386719 L 68.402344 139.386719 C 62.039062 139.386719 56.875 134.222656 56.875 127.859375 L 56.875 84.625 C 56.875 78.261719 62.039062 73.097656 68.402344 73.097656 L 203.710938 73.097656 C 210.074219 73.097656 215.238281 78.261719 215.238281 84.625 L 215.238281 127.859375 C 215.238281 134.238281 210.074219 139.386719 203.710938 139.386719 Z M 79.929688 116.332031 L 192.183594 116.332031 L 192.183594 96.152344 L 79.929688 96.152344 Z M 79.929688 116.332031 " fill-opacity="1" fill-rule="nonzero"/><path fill="#000000" d="M 203.710938 182.636719 L 158.601562 182.636719 C 152.242188 182.636719 147.078125 177.472656 147.078125 171.109375 L 147.078125 41.378906 C 147.078125 35.015625 152.242188 29.851562 158.601562 29.851562 L 203.710938 29.851562 C 210.074219 29.851562 215.238281 35.015625 215.238281 41.378906 L 215.238281 171.109375 C 215.238281 177.472656 210.074219 182.636719 203.710938 182.636719 Z M 170.128906 159.582031 L 192.183594 159.582031 L 192.183594 52.90625 L 170.128906 52.90625 Z M 170.128906 159.582031 " fill-opacity="1" fill-rule="nonzero"/><path fill="#000000" d="M 158.601562 182.636719 L 113.511719 182.636719 C 107.148438 182.636719 101.984375 177.472656 101.984375 171.109375 L 101.984375 84.625 C 101.984375 78.261719 107.148438 73.097656 113.511719 73.097656 L 158.617188 73.097656 C 164.980469 73.097656 170.144531 78.261719 170.144531 84.625 L 170.144531 171.109375 C 170.128906 177.472656 164.980469 182.636719 158.601562 182.636719 Z M 125.039062 159.582031 L 147.09375 159.582031 L 147.09375 96.152344 L 125.039062 96.152344 Z M 125.039062 159.582031 " fill-opacity="1" fill-rule="nonzero"/><path fill="#000000" d="M 113.511719 182.636719 L 68.402344 182.636719 C 62.039062 182.636719 56.875 177.472656 56.875 171.109375 L 56.875 127.859375 C 56.875 121.496094 62.039062 116.332031 68.402344 116.332031 L 113.511719 116.332031 C 119.875 116.332031 125.039062 121.496094 125.039062 127.859375 L 125.039062 171.109375 C 125.039062 177.472656 119.875 182.636719 113.511719 182.636719 Z M 79.929688 159.582031 L 101.984375 159.582031 L 101.984375 139.386719 L 79.929688 139.386719 Z M 79.929688 159.582031 " fill-opacity="1" fill-rule="nonzero"/></svg>