<svg xmlns="http://www.w3.org/2000/svg" xmlns:xlink="http://www.w3.org/1999/xlink" width="500" zoomAndPan="magnify" viewBox="0 0 375 374.999991" height="500" preserveAspectRatio="xMidYMid meet" version="1.0"><defs><clipPath id="950d848279"><path d="M 23 72 L 375 72 L 375 303.375 L 23 303.375 Z M 23 72 " clip-rule="nonzero"/></clipPath><clipPath id="d207fa0fea"><path d="M 171 78 L 204 78 L 204 110 L 171 110 Z M 171 78 " clip-rule="nonzero"/></clipPath><clipPath id="7706108d46"><path d="M 95.074219 75.207031 L 95.074219 148.695312 L 59.917969 148.695312 L 59.917969 185.4375 L 30.480469 185.4375 L 30.152344 188.632812 C 28.3125 208.652344 31.804688 227.117188 39.839844 242.902344 L 42.539062 247.742188 C 44.136719 250.644531 46.054688 253.371094 48.03125 256.03125 C 50.011719 258.691406 50.726562 260.160156 51.980469 261.921875 C 73.210938 285.757812 104.871094 297.261719 141.417969 297.261719 C 222.359375 297.261719 291.054688 261.414062 321.460938 180.886719 C 343.019531 183.097656 363.714844 177.570312 373.144531 159.171875 C 358.121094 150.507812 338.820312 153.285156 327.699219 158.875 L 357.167969 75.199219 L 242.105469 148.6875 L 205.347656 148.6875 L 205.347656 75.199219 Z M 95.074219 75.207031 " clip-rule="nonzero"/></clipPath><clipPath id="65a85cc11f"><path d="M 175 80 L 200 80 L 200 108 L 175 108 Z M 175 80 " clip-rule="nonzero"/></clipPath><clipPath id="358157c04e"><path d="M 95.074219 75.207031 L 95.074219 148.695312 L 59.917969 148.695312 L 59.917969 185.4375 L 30.480469 185.4375 L 30.152344 188.632812 C 28.3125 208.652344 31.804688 227.117188 39.839844 242.902344 L 42.539062 247.742188 C 44.136719 250.644531 46.054688 253.371094 48.03125 256.03125 C 50.011719 258.691406 50.726562 260.160156 51.980469 261.921875 C 73.210938 285.757812 104.871094 297.261719 141.417969 297.261719 C 222.359375 297.261719 291.054688 261.414062 321.460938 180.886719 C 343.019531 183.097656 363.714844 177.570312 373.144531 159.171875 C 358.121094 150.507812 338.820312 153.285156 327.699219 158.875 L 357.167969 75.199219 L 242.105469 148.6875 L 205.347656 148.6875 L 205.347656 75.199219 Z M 95.074219 75.207031 " clip-rule="nonzero"/></clipPath><clipPath id="4833c184ce"><path d="M 174 79 L 201 79 L 201 109 L 174 109 Z M 174 79 " clip-rule="nonzero"/></clipPath><clipPath id="4bd80322ed"><path d="M 95.074219 75.207031 L 95.074219 148.695312 L 59.917969 148.695312 L 59.917969 185.4375 L 30.480469 185.4375 L 30.152344 188.632812 C 28.3125 208.652344 31.804688 227.117188 39.839844 242.902344 L 42.539062 247.742188 C 44.136719 250.644531 46.054688 253.371094 48.03125 256.03125 C 50.011719 258.691406 50.726562 260.160156 51.980469 261.921875 C 73.210938 285.757812 104.871094 297.261719 141.417969 297.261719 C 222.359375 297.261719 291.054688 261.414062 321.460938 180.886719 C 343.019531 183.097656 363.714844 177.570312 373.144531 159.171875 C 358.121094 150.507812 338.820312 153.285156 327.699219 158.875 L 357.167969 75.199219 L 242.105469 148.6875 L 205.347656 148.6875 L 205.347656 75.199219 Z M 95.074219 75.207031 " clip-rule="nonzero"/></clipPath><clipPath id="ae4c328103"><path d="M 208 78 L 240 78 L 240 110 L 208 110 Z M 208 78 " clip-rule="nonzero"/></clipPath><clipPath id="caf274769a"><path d="M 95.074219 75.207031 L 95.074219 148.695312 L 59.917969 148.695312 L 59.917969 185.4375 L 30.480469 185.4375 L 30.152344 188.632812 C 28.3125 208.652344 31.804688 227.117188 39.839844 242.902344 L 42.539062 247.742188 C 44.136719 250.644531 46.054688 253.371094 48.03125 256.03125 C 50.011719 258.691406 50.726562 260.160156 51.980469 261.921875 C 73.210938 285.757812 104.871094 297.261719 141.417969 297.261719 C 222.359375 297.261719 291.054688 261.414062 321.460938 180.886719 C 343.019531 183.097656 363.714844 177.570312 373.144531 159.171875 C 358.121094 150.507812 338.820312 153.285156 327.699219 158.875 L 357.167969 75.199219 L 242.105469 148.6875 L 205.347656 148.6875 L 205.347656 75.199219 Z M 95.074219 75.207031 " clip-rule="nonzero"/></clipPath><clipPath id="11b1a164a4"><path d="M 211 80 L 236 80 L 236 108 L 211 108 Z M 211 80 " clip-rule="nonzero"/></clipPath><clipPath id="333def4509"><path d="M 95.074219 75.207031 L 95.074219 148.695312 L 59.917969 148.695312 L 59.917969 185.4375 L 30.480469 185.4375 L 30.152344 188.632812 C 28.3125 208.652344 31.804688 227.117188 39.839844 242.902344 L 42.539062 247.742188 C 44.136719 250.644531 46.054688 253.371094 48.03125 256.03125 C 50.011719 258.691406 50.726562 260.160156 51.980469 261.921875 C 73.210938 285.757812 104.871094 297.261719 141.417969 297.261719 C 222.359375 297.261719 291.054688 261.414062 321.460938 180.886719 C 343.019531 183.097656 363.714844 177.570312 373.144531 159.171875 C 358.121094 150.507812 338.820312 153.285156 327.699219 158.875 L 357.167969 75.199219 L 242.105469 148.6875 L 205.347656 148.6875 L 205.347656 75.199219 Z M 95.074219 75.207031 " clip-rule="nonzero"/></clipPath><clipPath id="961da0a6a2"><path d="M 210 79 L 238 79 L 238 109 L 210 109 Z M 210 79 " clip-rule="nonzero"/></clipPath><clipPath id="f9983704a1"><path d="M 95.074219 75.207031 L 95.074219 148.695312 L 59.917969 148.695312 L 59.917969 185.4375 L 30.480469 185.4375 L 30.152344 188.632812 C 28.3125 208.652344 31.804688 227.117188 39.839844 242.902344 L 42.539062 247.742188 C 44.136719 250.644531 46.054688 253.371094 48.03125 256.03125 C 50.011719 258.691406 50.726562 260.160156 51.980469 261.921875 C 73.210938 285.757812 104.871094 297.261719 141.417969 297.261719 C 222.359375 297.261719 291.054688 261.414062 321.460938 180.886719 C 343.019531 183.097656 363.714844 177.570312 373.144531 159.171875 C 358.121094 150.507812 338.820312 153.285156 327.699219 158.875 L 357.167969 75.199219 L 242.105469 148.6875 L 205.347656 148.6875 L 205.347656 75.199219 Z M 95.074219 75.207031 " clip-rule="nonzero"/></clipPath><clipPath id="243ac68aef"><path d="M 29.554688 114 L 58 114 L 58 147 L 29.554688 147 Z M 29.554688 114 " clip-rule="nonzero"/></clipPath><clipPath id="8f65840fff"><path d="M 95.074219 75.207031 L 95.074219 148.695312 L 59.917969 148.695312 L 59.917969 185.4375 L 30.480469 185.4375 L 30.152344 188.632812 C 28.3125 208.652344 31.804688 227.117188 39.839844 242.902344 L 42.539062 247.742188 C 44.136719 250.644531 46.054688 253.371094 48.03125 256.03125 C 50.011719 258.691406 50.726562 260.160156 51.980469 261.921875 C 73.210938 285.757812 104.871094 297.261719 141.417969 297.261719 C 222.359375 297.261719 291.054688 261.414062 321.460938 180.886719 C 343.019531 183.097656 363.714844 177.570312 373.144531 159.171875 C 358.121094 150.507812 338.820312 153.285156 327.699219 158.875 L 357.167969 75.199219 L 242.105469 148.6875 L 205.347656 148.6875 L 205.347656 75.199219 Z M 95.074219 75.207031 " clip-rule="nonzero"/></clipPath><clipPath id="31d580839e"><path d="M 29.554688 151 L 58 151 L 58 183 L 29.554688 183 Z M 29.554688 151 " clip-rule="nonzero"/></clipPath><clipPath id="9b27b10a14"><path d="M 95.074219 75.207031 L 95.074219 148.695312 L 59.917969 148.695312 L 59.917969 185.4375 L 30.480469 185.4375 L 30.152344 188.632812 C 28.3125 208.652344 31.804688 227.117188 39.839844 242.902344 L 42.539062 247.742188 C 44.136719 250.644531 46.054688 253.371094 48.03125 256.03125 C 50.011719 258.691406 50.726562 260.160156 51.980469 261.921875 C 73.210938 285.757812 104.871094 297.261719 141.417969 297.261719 C 222.359375 297.261719 291.054688 261.414062 321.460938 180.886719 C 343.019531 183.097656 363.714844 177.570312 373.144531 159.171875 C 358.121094 150.507812 338.820312 153.285156 327.699219 158.875 L 357.167969 75.199219 L 242.105469 148.6875 L 205.347656 148.6875 L 205.347656 75.199219 Z M 95.074219 75.207031 " clip-rule="nonzero"/></clipPath><clipPath id="e04694000a"><path d="M 29.554688 117 L 54 117 L 54 144 L 29.554688 144 Z M 29.554688 117 " clip-rule="nonzero"/></clipPath><clipPath id="af73855e37"><path d="M 95.074219 75.207031 L 95.074219 148.695312 L 59.917969 148.695312 L 59.917969 185.4375 L 30.480469 185.4375 L 30.152344 188.632812 C 28.3125 208.652344 31.804688 227.117188 39.839844 242.902344 L 42.539062 247.742188 C 44.136719 250.644531 46.054688 253.371094 48.03125 256.03125 C 50.011719 258.691406 50.726562 260.160156 51.980469 261.921875 C 73.210938 285.757812 104.871094 297.261719 141.417969 297.261719 C 222.359375 297.261719 291.054688 261.414062 321.460938 180.886719 C 343.019531 183.097656 363.714844 177.570312 373.144531 159.171875 C 358.121094 150.507812 338.820312 153.285156 327.699219 158.875 L 357.167969 75.199219 L 242.105469 148.6875 L 205.347656 148.6875 L 205.347656 75.199219 Z M 95.074219 75.207031 " clip-rule="nonzero"/></clipPath><clipPath id="c40b18e5f0"><path d="M 29.554688 116 L 55 116 L 55 145 L 29.554688 145 Z M 29.554688 116 " clip-rule="nonzero"/></clipPath><clipPath id="1040e15e3d"><path d="M 95.074219 75.207031 L 95.074219 148.695312 L 59.917969 148.695312 L 59.917969 185.4375 L 30.480469 185.4375 L 30.152344 188.632812 C 28.3125 208.652344 31.804688 227.117188 39.839844 242.902344 L 42.539062 247.742188 C 44.136719 250.644531 46.054688 253.371094 48.03125 256.03125 C 50.011719 258.691406 50.726562 260.160156 51.980469 261.921875 C 73.210938 285.757812 104.871094 297.261719 141.417969 297.261719 C 222.359375 297.261719 291.054688 261.414062 321.460938 180.886719 C 343.019531 183.097656 363.714844 177.570312 373.144531 159.171875 C 358.121094 150.507812 338.820312 153.285156 327.699219 158.875 L 357.167969 75.199219 L 242.105469 148.6875 L 205.347656 148.6875 L 205.347656 75.199219 Z M 95.074219 75.207031 " clip-rule="nonzero"/></clipPath><clipPath id="6ed155e965"><path d="M 29.554688 153 L 54 153 L 54 181 L 29.554688 181 Z M 29.554688 153 " clip-rule="nonzero"/></clipPath><clipPath id="32c5ba2f7a"><path d="M 95.074219 75.207031 L 95.074219 148.695312 L 59.917969 148.695312 L 59.917969 185.4375 L 30.480469 185.4375 L 30.152344 188.632812 C 28.3125 208.652344 31.804688 227.117188 39.839844 242.902344 L 42.539062 247.742188 C 44.136719 250.644531 46.054688 253.371094 48.03125 256.03125 C 50.011719 258.691406 50.726562 260.160156 51.980469 261.921875 C 73.210938 285.757812 104.871094 297.261719 141.417969 297.261719 C 222.359375 297.261719 291.054688 261.414062 321.460938 180.886719 C 343.019531 183.097656 363.714844 177.570312 373.144531 159.171875 C 358.121094 150.507812 338.820312 153.285156 327.699219 158.875 L 357.167969 75.199219 L 242.105469 148.6875 L 205.347656 148.6875 L 205.347656 75.199219 Z M 95.074219 75.207031 " clip-rule="nonzero"/></clipPath><clipPath id="b891a285a6"><path d="M 29.554688 152 L 55 152 L 55 182 L 29.554688 182 Z M 29.554688 152 " clip-rule="nonzero"/></clipPath><clipPath id="01863d1ffc"><path d="M 95.074219 75.207031 L 95.074219 148.695312 L 59.917969 148.695312 L 59.917969 185.4375 L 30.480469 185.4375 L 30.152344 188.632812 C 28.3125 208.652344 31.804688 227.117188 39.839844 242.902344 L 42.539062 247.742188 C 44.136719 250.644531 46.054688 253.371094 48.03125 256.03125 C 50.011719 258.691406 50.726562 260.160156 51.980469 261.921875 C 73.210938 285.757812 104.871094 297.261719 141.417969 297.261719 C 222.359375 297.261719 291.054688 261.414062 321.460938 180.886719 C 343.019531 183.097656 363.714844 177.570312 373.144531 159.171875 C 358.121094 150.507812 338.820312 153.285156 327.699219 158.875 L 357.167969 75.199219 L 242.105469 148.6875 L 205.347656 148.6875 L 205.347656 75.199219 Z M 95.074219 75.207031 " clip-rule="nonzero"/></clipPath><clipPath id="7d1e369787"><path d="M 61 151 L 94 151 L 94 183 L 61 183 Z M 61 151 " clip-rule="nonzero"/></clipPath><clipPath id="ab19bdd4ad"><path d="M 95.074219 75.207031 L 95.074219 148.695312 L 59.917969 148.695312 L 59.917969 185.4375 L 30.480469 185.4375 L 30.152344 188.632812 C 28.3125 208.652344 31.804688 227.117188 39.839844 242.902344 L 42.539062 247.742188 C 44.136719 250.644531 46.054688 253.371094 48.03125 256.03125 C 50.011719 258.691406 50.726562 260.160156 51.980469 261.921875 C 73.210938 285.757812 104.871094 297.261719 141.417969 297.261719 C 222.359375 297.261719 291.054688 261.414062 321.460938 180.886719 C 343.019531 183.097656 363.714844 177.570312 373.144531 159.171875 C 358.121094 150.507812 338.820312 153.285156 327.699219 158.875 L 357.167969 75.199219 L 242.105469 148.6875 L 205.347656 148.6875 L 205.347656 75.199219 Z M 95.074219 75.207031 " clip-rule="nonzero"/></clipPath><clipPath id="f50144740f"><path d="M 61 114 L 94 114 L 94 147 L 61 147 Z M 61 114 " clip-rule="nonzero"/></clipPath><clipPath id="08b00fcb5a"><path d="M 95.074219 75.207031 L 95.074219 148.695312 L 59.917969 148.695312 L 59.917969 185.4375 L 30.480469 185.4375 L 30.152344 188.632812 C 28.3125 208.652344 31.804688 227.117188 39.839844 242.902344 L 42.539062 247.742188 C 44.136719 250.644531 46.054688 253.371094 48.03125 256.03125 C 50.011719 258.691406 50.726562 260.160156 51.980469 261.921875 C 73.210938 285.757812 104.871094 297.261719 141.417969 297.261719 C 222.359375 297.261719 291.054688 261.414062 321.460938 180.886719 C 343.019531 183.097656 363.714844 177.570312 373.144531 159.171875 C 358.121094 150.507812 338.820312 153.285156 327.699219 158.875 L 357.167969 75.199219 L 242.105469 148.6875 L 205.347656 148.6875 L 205.347656 75.199219 Z M 95.074219 75.207031 " clip-rule="nonzero"/></clipPath><clipPath id="f67313c2e0"><path d="M 65 153 L 90 153 L 90 181 L 65 181 Z M 65 153 " clip-rule="nonzero"/></clipPath><clipPath id="5bc7b3ca16"><path d="M 95.074219 75.207031 L 95.074219 148.695312 L 59.917969 148.695312 L 59.917969 185.4375 L 30.480469 185.4375 L 30.152344 188.632812 C 28.3125 208.652344 31.804688 227.117188 39.839844 242.902344 L 42.539062 247.742188 C 44.136719 250.644531 46.054688 253.371094 48.03125 256.03125 C 50.011719 258.691406 50.726562 260.160156 51.980469 261.921875 C 73.210938 285.757812 104.871094 297.261719 141.417969 297.261719 C 222.359375 297.261719 291.054688 261.414062 321.460938 180.886719 C 343.019531 183.097656 363.714844 177.570312 373.144531 159.171875 C 358.121094 150.507812 338.820312 153.285156 327.699219 158.875 L 357.167969 75.199219 L 242.105469 148.6875 L 205.347656 148.6875 L 205.347656 75.199219 Z M 95.074219 75.207031 " clip-rule="nonzero"/></clipPath><clipPath id="2428f342fe"><path d="M 64 152 L 91 152 L 91 182 L 64 182 Z M 64 152 " clip-rule="nonzero"/></clipPath><clipPath id="223782df87"><path d="M 95.074219 75.207031 L 95.074219 148.695312 L 59.917969 148.695312 L 59.917969 185.4375 L 30.480469 185.4375 L 30.152344 188.632812 C 28.3125 208.652344 31.804688 227.117188 39.839844 242.902344 L 42.539062 247.742188 C 44.136719 250.644531 46.054688 253.371094 48.03125 256.03125 C 50.011719 258.691406 50.726562 260.160156 51.980469 261.921875 C 73.210938 285.757812 104.871094 297.261719 141.417969 297.261719 C 222.359375 297.261719 291.054688 261.414062 321.460938 180.886719 C 343.019531 183.097656 363.714844 177.570312 373.144531 159.171875 C 358.121094 150.507812 338.820312 153.285156 327.699219 158.875 L 357.167969 75.199219 L 242.105469 148.6875 L 205.347656 148.6875 L 205.347656 75.199219 Z M 95.074219 75.207031 " clip-rule="nonzero"/></clipPath><clipPath id="2a0d8c45f5"><path d="M 65 117 L 90 117 L 90 144 L 65 144 Z M 65 117 " clip-rule="nonzero"/></clipPath><clipPath id="cd8bf76417"><path d="M 95.074219 75.207031 L 95.074219 148.695312 L 59.917969 148.695312 L 59.917969 185.4375 L 30.480469 185.4375 L 30.152344 188.632812 C 28.3125 208.652344 31.804688 227.117188 39.839844 242.902344 L 42.539062 247.742188 C 44.136719 250.644531 46.054688 253.371094 48.03125 256.03125 C 50.011719 258.691406 50.726562 260.160156 51.980469 261.921875 C 73.210938 285.757812 104.871094 297.261719 141.417969 297.261719 C 222.359375 297.261719 291.054688 261.414062 321.460938 180.886719 C 343.019531 183.097656 363.714844 177.570312 373.144531 159.171875 C 358.121094 150.507812 338.820312 153.285156 327.699219 158.875 L 357.167969 75.199219 L 242.105469 148.6875 L 205.347656 148.6875 L 205.347656 75.199219 Z M 95.074219 75.207031 " clip-rule="nonzero"/></clipPath><clipPath id="8bfe50284d"><path d="M 64 116 L 91 116 L 91 145 L 64 145 Z M 64 116 " clip-rule="nonzero"/></clipPath><clipPath id="bc12917779"><path d="M 95.074219 75.207031 L 95.074219 148.695312 L 59.917969 148.695312 L 59.917969 185.4375 L 30.480469 185.4375 L 30.152344 188.632812 C 28.3125 208.652344 31.804688 227.117188 39.839844 242.902344 L 42.539062 247.742188 C 44.136719 250.644531 46.054688 253.371094 48.03125 256.03125 C 50.011719 258.691406 50.726562 260.160156 51.980469 261.921875 C 73.210938 285.757812 104.871094 297.261719 141.417969 297.261719 C 222.359375 297.261719 291.054688 261.414062 321.460938 180.886719 C 343.019531 183.097656 363.714844 177.570312 373.144531 159.171875 C 358.121094 150.507812 338.820312 153.285156 327.699219 158.875 L 357.167969 75.199219 L 242.105469 148.6875 L 205.347656 148.6875 L 205.347656 75.199219 Z M 95.074219 75.207031 " clip-rule="nonzero"/></clipPath><clipPath id="18c3df41ea"><path d="M 98 114 L 131 114 L 131 147 L 98 147 Z M 98 114 " clip-rule="nonzero"/></clipPath><clipPath id="7ee6b6c416"><path d="M 95.074219 75.207031 L 95.074219 148.695312 L 59.917969 148.695312 L 59.917969 185.4375 L 30.480469 185.4375 L 30.152344 188.632812 C 28.3125 208.652344 31.804688 227.117188 39.839844 242.902344 L 42.539062 247.742188 C 44.136719 250.644531 46.054688 253.371094 48.03125 256.03125 C 50.011719 258.691406 50.726562 260.160156 51.980469 261.921875 C 73.210938 285.757812 104.871094 297.261719 141.417969 297.261719 C 222.359375 297.261719 291.054688 261.414062 321.460938 180.886719 C 343.019531 183.097656 363.714844 177.570312 373.144531 159.171875 C 358.121094 150.507812 338.820312 153.285156 327.699219 158.875 L 357.167969 75.199219 L 242.105469 148.6875 L 205.347656 148.6875 L 205.347656 75.199219 Z M 95.074219 75.207031 " clip-rule="nonzero"/></clipPath><clipPath id="9a1c90efd9"><path d="M 98 151 L 131 151 L 131 183 L 98 183 Z M 98 151 " clip-rule="nonzero"/></clipPath><clipPath id="b9b4184459"><path d="M 95.074219 75.207031 L 95.074219 148.695312 L 59.917969 148.695312 L 59.917969 185.4375 L 30.480469 185.4375 L 30.152344 188.632812 C 28.3125 208.652344 31.804688 227.117188 39.839844 242.902344 L 42.539062 247.742188 C 44.136719 250.644531 46.054688 253.371094 48.03125 256.03125 C 50.011719 258.691406 50.726562 260.160156 51.980469 261.921875 C 73.210938 285.757812 104.871094 297.261719 141.417969 297.261719 C 222.359375 297.261719 291.054688 261.414062 321.460938 180.886719 C 343.019531 183.097656 363.714844 177.570312 373.144531 159.171875 C 358.121094 150.507812 338.820312 153.285156 327.699219 158.875 L 357.167969 75.199219 L 242.105469 148.6875 L 205.347656 148.6875 L 205.347656 75.199219 Z M 95.074219 75.207031 " clip-rule="nonzero"/></clipPath><clipPath id="bec3c5da2c"><path d="M 102 117 L 127 117 L 127 144 L 102 144 Z M 102 117 " clip-rule="nonzero"/></clipPath><clipPath id="0cf1538179"><path d="M 95.074219 75.207031 L 95.074219 148.695312 L 59.917969 148.695312 L 59.917969 185.4375 L 30.480469 185.4375 L 30.152344 188.632812 C 28.3125 208.652344 31.804688 227.117188 39.839844 242.902344 L 42.539062 247.742188 C 44.136719 250.644531 46.054688 253.371094 48.03125 256.03125 C 50.011719 258.691406 50.726562 260.160156 51.980469 261.921875 C 73.210938 285.757812 104.871094 297.261719 141.417969 297.261719 C 222.359375 297.261719 291.054688 261.414062 321.460938 180.886719 C 343.019531 183.097656 363.714844 177.570312 373.144531 159.171875 C 358.121094 150.507812 338.820312 153.285156 327.699219 158.875 L 357.167969 75.199219 L 242.105469 148.6875 L 205.347656 148.6875 L 205.347656 75.199219 Z M 95.074219 75.207031 " clip-rule="nonzero"/></clipPath><clipPath id="8978a3e310"><path d="M 101 116 L 128 116 L 128 145 L 101 145 Z M 101 116 " clip-rule="nonzero"/></clipPath><clipPath id="369d9e3825"><path d="M 95.074219 75.207031 L 95.074219 148.695312 L 59.917969 148.695312 L 59.917969 185.4375 L 30.480469 185.4375 L 30.152344 188.632812 C 28.3125 208.652344 31.804688 227.117188 39.839844 242.902344 L 42.539062 247.742188 C 44.136719 250.644531 46.054688 253.371094 48.03125 256.03125 C 50.011719 258.691406 50.726562 260.160156 51.980469 261.921875 C 73.210938 285.757812 104.871094 297.261719 141.417969 297.261719 C 222.359375 297.261719 291.054688 261.414062 321.460938 180.886719 C 343.019531 183.097656 363.714844 177.570312 373.144531 159.171875 C 358.121094 150.507812 338.820312 153.285156 327.699219 158.875 L 357.167969 75.199219 L 242.105469 148.6875 L 205.347656 148.6875 L 205.347656 75.199219 Z M 95.074219 75.207031 " clip-rule="nonzero"/></clipPath><clipPath id="7a8bb38f6c"><path d="M 102 153 L 127 153 L 127 181 L 102 181 Z M 102 153 " clip-rule="nonzero"/></clipPath><clipPath id="cafdd409f9"><path d="M 95.074219 75.207031 L 95.074219 148.695312 L 59.917969 148.695312 L 59.917969 185.4375 L 30.480469 185.4375 L 30.152344 188.632812 C 28.3125 208.652344 31.804688 227.117188 39.839844 242.902344 L 42.539062 247.742188 C 44.136719 250.644531 46.054688 253.371094 48.03125 256.03125 C 50.011719 258.691406 50.726562 260.160156 51.980469 261.921875 C 73.210938 285.757812 104.871094 297.261719 141.417969 297.261719 C 222.359375 297.261719 291.054688 261.414062 321.460938 180.886719 C 343.019531 183.097656 363.714844 177.570312 373.144531 159.171875 C 358.121094 150.507812 338.820312 153.285156 327.699219 158.875 L 357.167969 75.199219 L 242.105469 148.6875 L 205.347656 148.6875 L 205.347656 75.199219 Z M 95.074219 75.207031 " clip-rule="nonzero"/></clipPath><clipPath id="16480c9d45"><path d="M 101 152 L 128 152 L 128 182 L 101 182 Z M 101 152 " clip-rule="nonzero"/></clipPath><clipPath id="5a855fd515"><path d="M 95.074219 75.207031 L 95.074219 148.695312 L 59.917969 148.695312 L 59.917969 185.4375 L 30.480469 185.4375 L 30.152344 188.632812 C 28.3125 208.652344 31.804688 227.117188 39.839844 242.902344 L 42.539062 247.742188 C 44.136719 250.644531 46.054688 253.371094 48.03125 256.03125 C 50.011719 258.691406 50.726562 260.160156 51.980469 261.921875 C 73.210938 285.757812 104.871094 297.261719 141.417969 297.261719 C 222.359375 297.261719 291.054688 261.414062 321.460938 180.886719 C 343.019531 183.097656 363.714844 177.570312 373.144531 159.171875 C 358.121094 150.507812 338.820312 153.285156 327.699219 158.875 L 357.167969 75.199219 L 242.105469 148.6875 L 205.347656 148.6875 L 205.347656 75.199219 Z M 95.074219 75.207031 " clip-rule="nonzero"/></clipPath><clipPath id="81cbf12fe2"><path d="M 135 151 L 167 151 L 167 183 L 135 183 Z M 135 151 " clip-rule="nonzero"/></clipPath><clipPath id="64e0915462"><path d="M 95.074219 75.207031 L 95.074219 148.695312 L 59.917969 148.695312 L 59.917969 185.4375 L 30.480469 185.4375 L 30.152344 188.632812 C 28.3125 208.652344 31.804688 227.117188 39.839844 242.902344 L 42.539062 247.742188 C 44.136719 250.644531 46.054688 253.371094 48.03125 256.03125 C 50.011719 258.691406 50.726562 260.160156 51.980469 261.921875 C 73.210938 285.757812 104.871094 297.261719 141.417969 297.261719 C 222.359375 297.261719 291.054688 261.414062 321.460938 180.886719 C 343.019531 183.097656 363.714844 177.570312 373.144531 159.171875 C 358.121094 150.507812 338.820312 153.285156 327.699219 158.875 L 357.167969 75.199219 L 242.105469 148.6875 L 205.347656 148.6875 L 205.347656 75.199219 Z M 95.074219 75.207031 " clip-rule="nonzero"/></clipPath><clipPath id="a23d62bfe4"><path d="M 135 114 L 167 114 L 167 147 L 135 147 Z M 135 114 " clip-rule="nonzero"/></clipPath><clipPath id="c2f8a62244"><path d="M 95.074219 75.207031 L 95.074219 148.695312 L 59.917969 148.695312 L 59.917969 185.4375 L 30.480469 185.4375 L 30.152344 188.632812 C 28.3125 208.652344 31.804688 227.117188 39.839844 242.902344 L 42.539062 247.742188 C 44.136719 250.644531 46.054688 253.371094 48.03125 256.03125 C 50.011719 258.691406 50.726562 260.160156 51.980469 261.921875 C 73.210938 285.757812 104.871094 297.261719 141.417969 297.261719 C 222.359375 297.261719 291.054688 261.414062 321.460938 180.886719 C 343.019531 183.097656 363.714844 177.570312 373.144531 159.171875 C 358.121094 150.507812 338.820312 153.285156 327.699219 158.875 L 357.167969 75.199219 L 242.105469 148.6875 L 205.347656 148.6875 L 205.347656 75.199219 Z M 95.074219 75.207031 " clip-rule="nonzero"/></clipPath><clipPath id="695a54d773"><path d="M 138 153 L 163 153 L 163 181 L 138 181 Z M 138 153 " clip-rule="nonzero"/></clipPath><clipPath id="64e302189e"><path d="M 95.074219 75.207031 L 95.074219 148.695312 L 59.917969 148.695312 L 59.917969 185.4375 L 30.480469 185.4375 L 30.152344 188.632812 C 28.3125 208.652344 31.804688 227.117188 39.839844 242.902344 L 42.539062 247.742188 C 44.136719 250.644531 46.054688 253.371094 48.03125 256.03125 C 50.011719 258.691406 50.726562 260.160156 51.980469 261.921875 C 73.210938 285.757812 104.871094 297.261719 141.417969 297.261719 C 222.359375 297.261719 291.054688 261.414062 321.460938 180.886719 C 343.019531 183.097656 363.714844 177.570312 373.144531 159.171875 C 358.121094 150.507812 338.820312 153.285156 327.699219 158.875 L 357.167969 75.199219 L 242.105469 148.6875 L 205.347656 148.6875 L 205.347656 75.199219 Z M 95.074219 75.207031 " clip-rule="nonzero"/></clipPath><clipPath id="e7a48f8534"><path d="M 137 152 L 165 152 L 165 182 L 137 182 Z M 137 152 " clip-rule="nonzero"/></clipPath><clipPath id="70c46025b6"><path d="M 95.074219 75.207031 L 95.074219 148.695312 L 59.917969 148.695312 L 59.917969 185.4375 L 30.480469 185.4375 L 30.152344 188.632812 C 28.3125 208.652344 31.804688 227.117188 39.839844 242.902344 L 42.539062 247.742188 C 44.136719 250.644531 46.054688 253.371094 48.03125 256.03125 C 50.011719 258.691406 50.726562 260.160156 51.980469 261.921875 C 73.210938 285.757812 104.871094 297.261719 141.417969 297.261719 C 222.359375 297.261719 291.054688 261.414062 321.460938 180.886719 C 343.019531 183.097656 363.714844 177.570312 373.144531 159.171875 C 358.121094 150.507812 338.820312 153.285156 327.699219 158.875 L 357.167969 75.199219 L 242.105469 148.6875 L 205.347656 148.6875 L 205.347656 75.199219 Z M 95.074219 75.207031 " clip-rule="nonzero"/></clipPath><clipPath id="1f6896d9a1"><path d="M 138 117 L 163 117 L 163 144 L 138 144 Z M 138 117 " clip-rule="nonzero"/></clipPath><clipPath id="41c12c03b2"><path d="M 95.074219 75.207031 L 95.074219 148.695312 L 59.917969 148.695312 L 59.917969 185.4375 L 30.480469 185.4375 L 30.152344 188.632812 C 28.3125 208.652344 31.804688 227.117188 39.839844 242.902344 L 42.539062 247.742188 C 44.136719 250.644531 46.054688 253.371094 48.03125 256.03125 C 50.011719 258.691406 50.726562 260.160156 51.980469 261.921875 C 73.210938 285.757812 104.871094 297.261719 141.417969 297.261719 C 222.359375 297.261719 291.054688 261.414062 321.460938 180.886719 C 343.019531 183.097656 363.714844 177.570312 373.144531 159.171875 C 358.121094 150.507812 338.820312 153.285156 327.699219 158.875 L 357.167969 75.199219 L 242.105469 148.6875 L 205.347656 148.6875 L 205.347656 75.199219 Z M 95.074219 75.207031 " clip-rule="nonzero"/></clipPath><clipPath id="86e5a20056"><path d="M 137 116 L 165 116 L 165 145 L 137 145 Z M 137 116 " clip-rule="nonzero"/></clipPath><clipPath id="6c10f551e0"><path d="M 95.074219 75.207031 L 95.074219 148.695312 L 59.917969 148.695312 L 59.917969 185.4375 L 30.480469 185.4375 L 30.152344 188.632812 C 28.3125 208.652344 31.804688 227.117188 39.839844 242.902344 L 42.539062 247.742188 C 44.136719 250.644531 46.054688 253.371094 48.03125 256.03125 C 50.011719 258.691406 50.726562 260.160156 51.980469 261.921875 C 73.210938 285.757812 104.871094 297.261719 141.417969 297.261719 C 222.359375 297.261719 291.054688 261.414062 321.460938 180.886719 C 343.019531 183.097656 363.714844 177.570312 373.144531 159.171875 C 358.121094 150.507812 338.820312 153.285156 327.699219 158.875 L 357.167969 75.199219 L 242.105469 148.6875 L 205.347656 148.6875 L 205.347656 75.199219 Z M 95.074219 75.207031 " clip-rule="nonzero"/></clipPath><clipPath id="dc4e7681bc"><path d="M 171 114 L 204 114 L 204 147 L 171 147 Z M 171 114 " clip-rule="nonzero"/></clipPath><clipPath id="043a226fbb"><path d="M 95.074219 75.207031 L 95.074219 148.695312 L 59.917969 148.695312 L 59.917969 185.4375 L 30.480469 185.4375 L 30.152344 188.632812 C 28.3125 208.652344 31.804688 227.117188 39.839844 242.902344 L 42.539062 247.742188 C 44.136719 250.644531 46.054688 253.371094 48.03125 256.03125 C 50.011719 258.691406 50.726562 260.160156 51.980469 261.921875 C 73.210938 285.757812 104.871094 297.261719 141.417969 297.261719 C 222.359375 297.261719 291.054688 261.414062 321.460938 180.886719 C 343.019531 183.097656 363.714844 177.570312 373.144531 159.171875 C 358.121094 150.507812 338.820312 153.285156 327.699219 158.875 L 357.167969 75.199219 L 242.105469 148.6875 L 205.347656 148.6875 L 205.347656 75.199219 Z M 95.074219 75.207031 " clip-rule="nonzero"/></clipPath><clipPath id="49d3f9ad5c"><path d="M 171 151 L 204 151 L 204 183 L 171 183 Z M 171 151 " clip-rule="nonzero"/></clipPath><clipPath id="b027a2318d"><path d="M 95.074219 75.207031 L 95.074219 148.695312 L 59.917969 148.695312 L 59.917969 185.4375 L 30.480469 185.4375 L 30.152344 188.632812 C 28.3125 208.652344 31.804688 227.117188 39.839844 242.902344 L 42.539062 247.742188 C 44.136719 250.644531 46.054688 253.371094 48.03125 256.03125 C 50.011719 258.691406 50.726562 260.160156 51.980469 261.921875 C 73.210938 285.757812 104.871094 297.261719 141.417969 297.261719 C 222.359375 297.261719 291.054688 261.414062 321.460938 180.886719 C 343.019531 183.097656 363.714844 177.570312 373.144531 159.171875 C 358.121094 150.507812 338.820312 153.285156 327.699219 158.875 L 357.167969 75.199219 L 242.105469 148.6875 L 205.347656 148.6875 L 205.347656 75.199219 Z M 95.074219 75.207031 " clip-rule="nonzero"/></clipPath><clipPath id="383c5c2cc9"><path d="M 175 117 L 200 117 L 200 144 L 175 144 Z M 175 117 " clip-rule="nonzero"/></clipPath><clipPath id="4471896fe4"><path d="M 95.074219 75.207031 L 95.074219 148.695312 L 59.917969 148.695312 L 59.917969 185.4375 L 30.480469 185.4375 L 30.152344 188.632812 C 28.3125 208.652344 31.804688 227.117188 39.839844 242.902344 L 42.539062 247.742188 C 44.136719 250.644531 46.054688 253.371094 48.03125 256.03125 C 50.011719 258.691406 50.726562 260.160156 51.980469 261.921875 C 73.210938 285.757812 104.871094 297.261719 141.417969 297.261719 C 222.359375 297.261719 291.054688 261.414062 321.460938 180.886719 C 343.019531 183.097656 363.714844 177.570312 373.144531 159.171875 C 358.121094 150.507812 338.820312 153.285156 327.699219 158.875 L 357.167969 75.199219 L 242.105469 148.6875 L 205.347656 148.6875 L 205.347656 75.199219 Z M 95.074219 75.207031 " clip-rule="nonzero"/></clipPath><clipPath id="294bd4c731"><path d="M 174 116 L 201 116 L 201 145 L 174 145 Z M 174 116 " clip-rule="nonzero"/></clipPath><clipPath id="8c4cd1ea56"><path d="M 95.074219 75.207031 L 95.074219 148.695312 L 59.917969 148.695312 L 59.917969 185.4375 L 30.480469 185.4375 L 30.152344 188.632812 C 28.3125 208.652344 31.804688 227.117188 39.839844 242.902344 L 42.539062 247.742188 C 44.136719 250.644531 46.054688 253.371094 48.03125 256.03125 C 50.011719 258.691406 50.726562 260.160156 51.980469 261.921875 C 73.210938 285.757812 104.871094 297.261719 141.417969 297.261719 C 222.359375 297.261719 291.054688 261.414062 321.460938 180.886719 C 343.019531 183.097656 363.714844 177.570312 373.144531 159.171875 C 358.121094 150.507812 338.820312 153.285156 327.699219 158.875 L 357.167969 75.199219 L 242.105469 148.6875 L 205.347656 148.6875 L 205.347656 75.199219 Z M 95.074219 75.207031 " clip-rule="nonzero"/></clipPath><clipPath id="c37d6cf8e3"><path d="M 175 153 L 200 153 L 200 181 L 175 181 Z M 175 153 " clip-rule="nonzero"/></clipPath><clipPath id="c54295c046"><path d="M 95.074219 75.207031 L 95.074219 148.695312 L 59.917969 148.695312 L 59.917969 185.4375 L 30.480469 185.4375 L 30.152344 188.632812 C 28.3125 208.652344 31.804688 227.117188 39.839844 242.902344 L 42.539062 247.742188 C 44.136719 250.644531 46.054688 253.371094 48.03125 256.03125 C 50.011719 258.691406 50.726562 260.160156 51.980469 261.921875 C 73.210938 285.757812 104.871094 297.261719 141.417969 297.261719 C 222.359375 297.261719 291.054688 261.414062 321.460938 180.886719 C 343.019531 183.097656 363.714844 177.570312 373.144531 159.171875 C 358.121094 150.507812 338.820312 153.285156 327.699219 158.875 L 357.167969 75.199219 L 242.105469 148.6875 L 205.347656 148.6875 L 205.347656 75.199219 Z M 95.074219 75.207031 " clip-rule="nonzero"/></clipPath><clipPath id="aa0a3e2afc"><path d="M 174 152 L 201 152 L 201 182 L 174 182 Z M 174 152 " clip-rule="nonzero"/></clipPath><clipPath id="efde72d883"><path d="M 95.074219 75.207031 L 95.074219 148.695312 L 59.917969 148.695312 L 59.917969 185.4375 L 30.480469 185.4375 L 30.152344 188.632812 C 28.3125 208.652344 31.804688 227.117188 39.839844 242.902344 L 42.539062 247.742188 C 44.136719 250.644531 46.054688 253.371094 48.03125 256.03125 C 50.011719 258.691406 50.726562 260.160156 51.980469 261.921875 C 73.210938 285.757812 104.871094 297.261719 141.417969 297.261719 C 222.359375 297.261719 291.054688 261.414062 321.460938 180.886719 C 343.019531 183.097656 363.714844 177.570312 373.144531 159.171875 C 358.121094 150.507812 338.820312 153.285156 327.699219 158.875 L 357.167969 75.199219 L 242.105469 148.6875 L 205.347656 148.6875 L 205.347656 75.199219 Z M 95.074219 75.207031 " clip-rule="nonzero"/></clipPath><clipPath id="b76dc2fe01"><path d="M 208 151 L 240 151 L 240 183 L 208 183 Z M 208 151 " clip-rule="nonzero"/></clipPath><clipPath id="5d5546e223"><path d="M 95.074219 75.207031 L 95.074219 148.695312 L 59.917969 148.695312 L 59.917969 185.4375 L 30.480469 185.4375 L 30.152344 188.632812 C 28.3125 208.652344 31.804688 227.117188 39.839844 242.902344 L 42.539062 247.742188 C 44.136719 250.644531 46.054688 253.371094 48.03125 256.03125 C 50.011719 258.691406 50.726562 260.160156 51.980469 261.921875 C 73.210938 285.757812 104.871094 297.261719 141.417969 297.261719 C 222.359375 297.261719 291.054688 261.414062 321.460938 180.886719 C 343.019531 183.097656 363.714844 177.570312 373.144531 159.171875 C 358.121094 150.507812 338.820312 153.285156 327.699219 158.875 L 357.167969 75.199219 L 242.105469 148.6875 L 205.347656 148.6875 L 205.347656 75.199219 Z M 95.074219 75.207031 " clip-rule="nonzero"/></clipPath><clipPath id="910bc07ebf"><path d="M 208 114 L 240 114 L 240 147 L 208 147 Z M 208 114 " clip-rule="nonzero"/></clipPath><clipPath id="827a054143"><path d="M 95.074219 75.207031 L 95.074219 148.695312 L 59.917969 148.695312 L 59.917969 185.4375 L 30.480469 185.4375 L 30.152344 188.632812 C 28.3125 208.652344 31.804688 227.117188 39.839844 242.902344 L 42.539062 247.742188 C 44.136719 250.644531 46.054688 253.371094 48.03125 256.03125 C 50.011719 258.691406 50.726562 260.160156 51.980469 261.921875 C 73.210938 285.757812 104.871094 297.261719 141.417969 297.261719 C 222.359375 297.261719 291.054688 261.414062 321.460938 180.886719 C 343.019531 183.097656 363.714844 177.570312 373.144531 159.171875 C 358.121094 150.507812 338.820312 153.285156 327.699219 158.875 L 357.167969 75.199219 L 242.105469 148.6875 L 205.347656 148.6875 L 205.347656 75.199219 Z M 95.074219 75.207031 " clip-rule="nonzero"/></clipPath><clipPath id="e1930b0948"><path d="M 211 153 L 236 153 L 236 181 L 211 181 Z M 211 153 " clip-rule="nonzero"/></clipPath><clipPath id="2ac04412eb"><path d="M 95.074219 75.207031 L 95.074219 148.695312 L 59.917969 148.695312 L 59.917969 185.4375 L 30.480469 185.4375 L 30.152344 188.632812 C 28.3125 208.652344 31.804688 227.117188 39.839844 242.902344 L 42.539062 247.742188 C 44.136719 250.644531 46.054688 253.371094 48.03125 256.03125 C 50.011719 258.691406 50.726562 260.160156 51.980469 261.921875 C 73.210938 285.757812 104.871094 297.261719 141.417969 297.261719 C 222.359375 297.261719 291.054688 261.414062 321.460938 180.886719 C 343.019531 183.097656 363.714844 177.570312 373.144531 159.171875 C 358.121094 150.507812 338.820312 153.285156 327.699219 158.875 L 357.167969 75.199219 L 242.105469 148.6875 L 205.347656 148.6875 L 205.347656 75.199219 Z M 95.074219 75.207031 " clip-rule="nonzero"/></clipPath><clipPath id="5defc16b94"><path d="M 210 152 L 238 152 L 238 182 L 210 182 Z M 210 152 " clip-rule="nonzero"/></clipPath><clipPath id="932b5da41a"><path d="M 95.074219 75.207031 L 95.074219 148.695312 L 59.917969 148.695312 L 59.917969 185.4375 L 30.480469 185.4375 L 30.152344 188.632812 C 28.3125 208.652344 31.804688 227.117188 39.839844 242.902344 L 42.539062 247.742188 C 44.136719 250.644531 46.054688 253.371094 48.03125 256.03125 C 50.011719 258.691406 50.726562 260.160156 51.980469 261.921875 C 73.210938 285.757812 104.871094 297.261719 141.417969 297.261719 C 222.359375 297.261719 291.054688 261.414062 321.460938 180.886719 C 343.019531 183.097656 363.714844 177.570312 373.144531 159.171875 C 358.121094 150.507812 338.820312 153.285156 327.699219 158.875 L 357.167969 75.199219 L 242.105469 148.6875 L 205.347656 148.6875 L 205.347656 75.199219 Z M 95.074219 75.207031 " clip-rule="nonzero"/></clipPath><clipPath id="33d400713f"><path d="M 211 117 L 236 117 L 236 144 L 211 144 Z M 211 117 " clip-rule="nonzero"/></clipPath><clipPath id="7d09b7f061"><path d="M 95.074219 75.207031 L 95.074219 148.695312 L 59.917969 148.695312 L 59.917969 185.4375 L 30.480469 185.4375 L 30.152344 188.632812 C 28.3125 208.652344 31.804688 227.117188 39.839844 242.902344 L 42.539062 247.742188 C 44.136719 250.644531 46.054688 253.371094 48.03125 256.03125 C 50.011719 258.691406 50.726562 260.160156 51.980469 261.921875 C 73.210938 285.757812 104.871094 297.261719 141.417969 297.261719 C 222.359375 297.261719 291.054688 261.414062 321.460938 180.886719 C 343.019531 183.097656 363.714844 177.570312 373.144531 159.171875 C 358.121094 150.507812 338.820312 153.285156 327.699219 158.875 L 357.167969 75.199219 L 242.105469 148.6875 L 205.347656 148.6875 L 205.347656 75.199219 Z M 95.074219 75.207031 " clip-rule="nonzero"/></clipPath><clipPath id="0319f479ae"><path d="M 210 116 L 238 116 L 238 145 L 210 145 Z M 210 116 " clip-rule="nonzero"/></clipPath><clipPath id="efc6948dea"><path d="M 95.074219 75.207031 L 95.074219 148.695312 L 59.917969 148.695312 L 59.917969 185.4375 L 30.480469 185.4375 L 30.152344 188.632812 C 28.3125 208.652344 31.804688 227.117188 39.839844 242.902344 L 42.539062 247.742188 C 44.136719 250.644531 46.054688 253.371094 48.03125 256.03125 C 50.011719 258.691406 50.726562 260.160156 51.980469 261.921875 C 73.210938 285.757812 104.871094 297.261719 141.417969 297.261719 C 222.359375 297.261719 291.054688 261.414062 321.460938 180.886719 C 343.019531 183.097656 363.714844 177.570312 373.144531 159.171875 C 358.121094 150.507812 338.820312 153.285156 327.699219 158.875 L 357.167969 75.199219 L 242.105469 148.6875 L 205.347656 148.6875 L 205.347656 75.199219 Z M 95.074219 75.207031 " clip-rule="nonzero"/></clipPath><clipPath id="576bb719a0"><path d="M 29.554688 117 L 373.144531 117 L 373.144531 297.269531 L 29.554688 297.269531 Z M 29.554688 117 " clip-rule="nonzero"/></clipPath><clipPath id="38c330ae27"><path d="M 95.074219 75.207031 L 95.074219 148.695312 L 59.917969 148.695312 L 59.917969 185.4375 L 30.480469 185.4375 L 30.152344 188.632812 C 28.3125 208.652344 31.804688 227.117188 39.839844 242.902344 L 42.539062 247.742188 C 44.136719 250.644531 46.054688 253.371094 48.03125 256.03125 C 50.011719 258.691406 50.726562 260.160156 51.980469 261.921875 C 73.210938 285.757812 104.871094 297.261719 141.417969 297.261719 C 222.359375 297.261719 291.054688 261.414062 321.460938 180.886719 C 343.019531 183.097656 363.714844 177.570312 373.144531 159.171875 C 358.121094 150.507812 338.820312 153.285156 327.699219 158.875 L 357.167969 75.199219 L 242.105469 148.6875 L 205.347656 148.6875 L 205.347656 75.199219 Z M 95.074219 75.207031 " clip-rule="nonzero"/></clipPath><clipPath id="eeed008e4b"><path d="M 29.554688 214 L 373.144531 214 L 373.144531 297.269531 L 29.554688 297.269531 Z M 29.554688 214 " clip-rule="nonzero"/></clipPath><clipPath id="33d101f7e5"><path d="M 95.074219 75.207031 L 95.074219 148.695312 L 59.917969 148.695312 L 59.917969 185.4375 L 30.480469 185.4375 L 30.152344 188.632812 C 28.3125 208.652344 31.804688 227.117188 39.839844 242.902344 L 42.539062 247.742188 C 44.136719 250.644531 46.054688 253.371094 48.03125 256.03125 C 50.011719 258.691406 50.726562 260.160156 51.980469 261.921875 C 73.210938 285.757812 104.871094 297.261719 141.417969 297.261719 C 222.359375 297.261719 291.054688 261.414062 321.460938 180.886719 C 343.019531 183.097656 363.714844 177.570312 373.144531 159.171875 C 358.121094 150.507812 338.820312 153.285156 327.699219 158.875 L 357.167969 75.199219 L 242.105469 148.6875 L 205.347656 148.6875 L 205.347656 75.199219 Z M 95.074219 75.207031 " clip-rule="nonzero"/></clipPath><clipPath id="536e034398"><path d="M 45 257 L 152 257 L 152 297.269531 L 45 297.269531 Z M 45 257 " clip-rule="nonzero"/></clipPath><clipPath id="760cebb981"><path d="M 95.074219 75.207031 L 95.074219 148.695312 L 59.917969 148.695312 L 59.917969 185.4375 L 30.480469 185.4375 L 30.152344 188.632812 C 28.3125 208.652344 31.804688 227.117188 39.839844 242.902344 L 42.539062 247.742188 C 44.136719 250.644531 46.054688 253.371094 48.03125 256.03125 C 50.011719 258.691406 50.726562 260.160156 51.980469 261.921875 C 73.210938 285.757812 104.871094 297.261719 141.417969 297.261719 C 222.359375 297.261719 291.054688 261.414062 321.460938 180.886719 C 343.019531 183.097656 363.714844 177.570312 373.144531 159.171875 C 358.121094 150.507812 338.820312 153.285156 327.699219 158.875 L 357.167969 75.199219 L 242.105469 148.6875 L 205.347656 148.6875 L 205.347656 75.199219 Z M 95.074219 75.207031 " clip-rule="nonzero"/></clipPath><clipPath id="15694861f0"><path d="M 29.554688 151 L 373.144531 151 L 373.144531 297.269531 L 29.554688 297.269531 Z M 29.554688 151 " clip-rule="nonzero"/></clipPath><clipPath id="bead868e1a"><path d="M 95.074219 75.207031 L 95.074219 148.695312 L 59.917969 148.695312 L 59.917969 185.4375 L 30.480469 185.4375 L 30.152344 188.632812 C 28.3125 208.652344 31.804688 227.117188 39.839844 242.902344 L 42.539062 247.742188 C 44.136719 250.644531 46.054688 253.371094 48.03125 256.03125 C 50.011719 258.691406 50.726562 260.160156 51.980469 261.921875 C 73.210938 285.757812 104.871094 297.261719 141.417969 297.261719 C 222.359375 297.261719 291.054688 261.414062 321.460938 180.886719 C 343.019531 183.097656 363.714844 177.570312 373.144531 159.171875 C 358.121094 150.507812 338.820312 153.285156 327.699219 158.875 L 357.167969 75.199219 L 242.105469 148.6875 L 205.347656 148.6875 L 205.347656 75.199219 Z M 95.074219 75.207031 " clip-rule="nonzero"/></clipPath></defs><rect x="-37.5" width="450" fill="#ffffff" y="-37.499999" height="449.999989" fill-opacity="1"/><g clip-path="url(#950d848279)"><path fill="#394d54" d="M 209.316406 145.070312 L 245.851562 145.070312 L 245.851562 182.410156 L 264.328125 182.410156 C 273.023438 182.371094 281.488281 180.949219 289.722656 178.15625 C 293.703125 176.804688 298.152344 174.9375 302.0625 172.582031 C 296.90625 165.851562 294.273438 157.355469 293.410156 148.964844 C 292.351562 137.570312 294.65625 122.734375 302.375 113.816406 L 306.214844 109.375 L 310.804688 113.054688 C 322.332031 122.308594 332.023438 135.246094 333.738281 149.996094 C 347.609375 145.910156 363.90625 146.878906 376.144531 153.941406 L 381.164062 156.839844 L 378.523438 161.996094 C 368.25 182.152344 346.613281 188.40625 325.472656 187.300781 C 293.832031 266.070312 224.953125 303.367188 141.4375 303.367188 C 98.289062 303.367188 58.703125 287.242188 36.167969 248.976562 C 34.84375 246.597656 33.71875 244.113281 32.515625 241.671875 C 24.898438 224.828125 22.363281 206.375 24.078125 188.035156 L 24.597656 182.515625 L 55.753906 182.515625 L 55.753906 145.097656 L 92.292969 145.097656 L 92.292969 108.570312 L 165.375 108.570312 L 165.375 72.046875 L 209.226562 72.046875 L 209.226562 145.105469 " fill-opacity="1" fill-rule="nonzero"/></g><g clip-path="url(#d207fa0fea)"><g clip-path="url(#7706108d46)"><path fill="#20c2ef" d="M 171.558594 78.097656 L 203.230469 78.097656 L 203.230469 109.757812 L 171.558594 109.757812 Z M 171.558594 78.097656 " fill-opacity="1" fill-rule="nonzero"/></g></g><g clip-path="url(#65a85cc11f)"><g clip-path="url(#358157c04e)"><path fill="#000000" d="M 175.445312 107.121094 L 175.445312 80.734375 M 180.191406 107.121094 L 180.191406 80.734375 M 184.992188 107.121094 L 184.992188 80.734375 M 189.789062 107.121094 L 189.789062 80.734375 M 194.589844 107.121094 L 194.589844 80.734375 M 199.335938 107.121094 L 199.335938 80.734375 " fill-opacity="1" fill-rule="nonzero"/></g></g><g clip-path="url(#4833c184ce)"><g clip-path="url(#4bd80322ed)"><path stroke-linecap="butt" transform="matrix(1.598102, 0, 0, 1.597569, -26.380804, 72.011047)" fill="none" stroke-linejoin="miter" d="M 126.291166 21.977175 L 126.291166 5.460377 M 129.260998 21.977175 L 129.260998 5.460377 M 132.26505 21.977175 L 132.26505 5.460377 M 135.266659 21.977175 L 135.266659 5.460377 M 138.270711 21.977175 L 138.270711 5.460377 M 141.240544 21.977175 L 141.240544 5.460377 " stroke="#394d54" stroke-width="1.56" stroke-opacity="1" stroke-miterlimit="4"/></g></g><g clip-path="url(#ae4c328103)"><g clip-path="url(#caf274769a)"><path fill="#00acd3" d="M 208.101562 109.777344 L 239.773438 109.777344 L 239.773438 78.117188 L 208.097656 78.117188 Z M 208.101562 109.777344 " fill-opacity="1" fill-rule="nonzero"/></g></g><g clip-path="url(#11b1a164a4)"><g clip-path="url(#333def4509)"><path fill="#000000" d="M 211.984375 80.738281 L 211.984375 107.125 M 216.734375 80.738281 L 216.734375 107.125 M 221.53125 80.738281 L 221.53125 107.125 M 226.332031 80.738281 L 226.332031 107.125 M 231.132812 80.738281 L 231.132812 107.125 M 235.878906 80.738281 L 235.878906 107.125 " fill-opacity="1" fill-rule="nonzero"/></g></g><g clip-path="url(#961da0a6a2)"><g clip-path="url(#f9983704a1)"><path stroke-linecap="butt" transform="matrix(1.598102, 0, 0, -1.597569, 10.161387, 115.846252)" fill="none" stroke-linejoin="miter" d="M 126.289208 21.975876 L 126.289208 5.459078 M 129.261484 21.975876 L 129.261484 5.459078 M 132.263093 21.975876 L 132.263093 5.459078 M 135.267145 21.975876 L 135.267145 5.459078 M 138.271198 21.975876 L 138.271198 5.459078 M 141.24103 21.975876 L 141.24103 5.459078 " stroke="#394d54" stroke-width="1.56" stroke-opacity="1" stroke-miterlimit="4"/></g></g><g clip-path="url(#243ac68aef)"><g clip-path="url(#8f65840fff)"><path fill="#00acd3" d="M 25.390625 114.613281 L 57.0625 114.613281 L 57.0625 146.269531 L 25.386719 146.269531 Z M 25.390625 114.613281 " fill-opacity="1" fill-rule="nonzero"/></g></g><g clip-path="url(#31d580839e)"><g clip-path="url(#9b27b10a14)"><path fill="#20c2ef" d="M 25.390625 151.15625 L 57.0625 151.15625 L 57.0625 182.820312 L 25.386719 182.820312 Z M 25.390625 151.15625 " fill-opacity="1" fill-rule="nonzero"/></g></g><g clip-path="url(#e04694000a)"><g clip-path="url(#af73855e37)"><path fill="#000000" d="M 29.273438 143.652344 L 29.273438 117.265625 M 34.023438 143.648438 L 34.023438 117.265625 M 38.820312 143.648438 L 38.820312 117.265625 M 43.621094 143.648438 L 43.621094 117.265625 M 48.421875 143.648438 L 48.421875 117.265625 M 53.167969 143.648438 L 53.167969 117.265625 " fill-opacity="1" fill-rule="nonzero"/></g></g><g clip-path="url(#c40b18e5f0)"><g clip-path="url(#1040e15e3d)"><path stroke-linecap="butt" transform="matrix(1.598102, 0, 0, 1.597569, -172.549568, 108.541046)" fill="none" stroke-linejoin="miter" d="M 126.289219 21.977958 L 126.289219 5.46116 M 129.261495 21.975513 L 129.261495 5.46116 M 132.263104 21.975513 L 132.263104 5.46116 M 135.267156 21.975513 L 135.267156 5.46116 M 138.271209 21.975513 L 138.271209 5.46116 M 141.241041 21.975513 L 141.241041 5.46116 " stroke="#394d54" stroke-width="1.56" stroke-opacity="1" stroke-miterlimit="4"/></g></g><g clip-path="url(#6ed155e965)"><g clip-path="url(#32c5ba2f7a)"><path fill="#000000" d="M 29.273438 180.179688 L 29.273438 153.792969 M 34.023438 180.179688 L 34.023438 153.792969 M 38.820312 180.179688 L 38.820312 153.792969 M 43.621094 180.179688 L 43.621094 153.792969 M 48.421875 180.179688 L 48.421875 153.792969 M 53.167969 180.179688 L 53.167969 153.792969 " fill-opacity="1" fill-rule="nonzero"/></g></g><g clip-path="url(#b891a285a6)"><g clip-path="url(#01863d1ffc)"><path stroke-linecap="butt" transform="matrix(1.598102, 0, 0, 1.597569, -172.549568, 145.071055)" fill="none" stroke-linejoin="miter" d="M 126.289219 21.97629 L 126.289219 5.459492 M 129.261495 21.97629 L 129.261495 5.459492 M 132.263104 21.97629 L 132.263104 5.459492 M 135.267156 21.97629 L 135.267156 5.459492 M 138.271209 21.97629 L 138.271209 5.459492 M 141.241041 21.97629 L 141.241041 5.459492 " stroke="#394d54" stroke-width="1.56" stroke-opacity="1" stroke-miterlimit="4"/></g></g><g clip-path="url(#7d1e369787)"><g clip-path="url(#ab19bdd4ad)"><path fill="#00acd3" d="M 61.933594 182.835938 L 93.605469 182.835938 L 93.605469 151.175781 L 61.929688 151.175781 Z M 61.933594 182.835938 " fill-opacity="1" fill-rule="nonzero"/></g></g><g clip-path="url(#f50144740f)"><g clip-path="url(#08b00fcb5a)"><path fill="#20c2ef" d="M 61.933594 146.289062 L 93.605469 146.289062 L 93.605469 114.628906 L 61.929688 114.628906 Z M 61.933594 146.289062 " fill-opacity="1" fill-rule="nonzero"/></g></g><g clip-path="url(#f67313c2e0)"><g clip-path="url(#5bc7b3ca16)"><path fill="#000000" d="M 65.816406 153.796875 L 65.816406 180.183594 M 70.566406 153.796875 L 70.566406 180.183594 M 75.363281 153.796875 L 75.363281 180.183594 M 80.164062 153.796875 L 80.164062 180.183594 M 84.960938 153.796875 L 84.960938 180.183594 M 89.707031 153.796875 L 89.707031 180.183594 " fill-opacity="1" fill-rule="nonzero"/></g></g><g clip-path="url(#2428f342fe)"><g clip-path="url(#223782df87)"><path stroke-linecap="butt" transform="matrix(1.598102, 0, 0, -1.597569, -136.007389, 188.906268)" fill="none" stroke-linejoin="miter" d="M 126.289713 21.976766 L 126.289713 5.459968 M 129.261989 21.976766 L 129.261989 5.459968 M 132.263598 21.976766 L 132.263598 5.459968 M 135.26765 21.976766 L 135.26765 5.459968 M 138.269259 21.976766 L 138.269259 5.459968 M 141.239091 21.976766 L 141.239091 5.459968 " stroke="#394d54" stroke-width="1.56" stroke-opacity="1" stroke-miterlimit="4"/></g></g><g clip-path="url(#2a0d8c45f5)"><g clip-path="url(#cd8bf76417)"><path fill="#000000" d="M 65.816406 117.265625 L 65.816406 143.652344 M 70.566406 117.269531 L 70.566406 143.652344 M 75.363281 117.269531 L 75.363281 143.652344 M 80.164062 117.269531 L 80.164062 143.652344 M 84.960938 117.269531 L 84.960938 143.652344 M 89.707031 117.269531 L 89.707031 143.652344 " fill-opacity="1" fill-rule="nonzero"/></g></g><g clip-path="url(#8bfe50284d)"><g clip-path="url(#bc12917779)"><path stroke-linecap="butt" transform="matrix(1.598102, 0, 0, -1.597569, -136.007389, 152.376259)" fill="none" stroke-linejoin="miter" d="M 126.289713 21.977543 L 126.289713 5.460745 M 129.261989 21.975098 L 129.261989 5.460745 M 132.263598 21.975098 L 132.263598 5.460745 M 135.26765 21.975098 L 135.26765 5.460745 M 138.269259 21.975098 L 138.269259 5.460745 M 141.239091 21.975098 L 141.239091 5.460745 " stroke="#394d54" stroke-width="1.56" stroke-opacity="1" stroke-miterlimit="4"/></g></g><g clip-path="url(#18c3df41ea)"><g clip-path="url(#7ee6b6c416)"><path fill="#00acd3" d="M 98.476562 114.613281 L 130.148438 114.613281 L 130.148438 146.269531 L 98.472656 146.269531 Z M 98.476562 114.613281 " fill-opacity="1" fill-rule="nonzero"/></g></g><g clip-path="url(#9a1c90efd9)"><g clip-path="url(#b9b4184459)"><path fill="#20c2ef" d="M 98.476562 151.15625 L 130.148438 151.15625 L 130.148438 182.820312 L 98.472656 182.820312 Z M 98.476562 151.15625 " fill-opacity="1" fill-rule="nonzero"/></g></g><g clip-path="url(#bec3c5da2c)"><g clip-path="url(#0cf1538179)"><path fill="#000000" d="M 102.359375 143.652344 L 102.359375 117.265625 M 107.109375 143.648438 L 107.109375 117.265625 M 111.90625 143.648438 L 111.90625 117.265625 M 116.707031 143.648438 L 116.707031 117.265625 M 121.503906 143.648438 L 121.503906 117.265625 M 126.25 143.648438 L 126.25 117.265625 " fill-opacity="1" fill-rule="nonzero"/></g></g><g clip-path="url(#8978a3e310)"><g clip-path="url(#369d9e3825)"><path stroke-linecap="butt" transform="matrix(1.598102, 0, 0, 1.597569, -99.465186, 108.541046)" fill="none" stroke-linejoin="miter" d="M 126.290192 21.977958 L 126.290192 5.46116 M 129.262469 21.975513 L 129.262469 5.46116 M 132.264077 21.975513 L 132.264077 5.46116 M 135.268129 21.975513 L 135.268129 5.46116 M 138.269738 21.975513 L 138.269738 5.46116 M 141.23957 21.975513 L 141.23957 5.46116 " stroke="#394d54" stroke-width="1.56" stroke-opacity="1" stroke-miterlimit="4"/></g></g><g clip-path="url(#7a8bb38f6c)"><g clip-path="url(#cafdd409f9)"><path fill="#000000" d="M 102.359375 180.179688 L 102.359375 153.792969 M 107.109375 180.179688 L 107.109375 153.792969 M 111.90625 180.179688 L 111.90625 153.792969 M 116.707031 180.179688 L 116.707031 153.792969 M 121.503906 180.179688 L 121.503906 153.792969 M 126.25 180.179688 L 126.25 153.792969 " fill-opacity="1" fill-rule="nonzero"/></g></g><g clip-path="url(#16480c9d45)"><g clip-path="url(#5a855fd515)"><path stroke-linecap="butt" transform="matrix(1.598102, 0, 0, 1.597569, -99.465186, 145.071055)" fill="none" stroke-linejoin="miter" d="M 126.290192 21.97629 L 126.290192 5.459492 M 129.262469 21.97629 L 129.262469 5.459492 M 132.264077 21.97629 L 132.264077 5.459492 M 135.268129 21.97629 L 135.268129 5.459492 M 138.269738 21.97629 L 138.269738 5.459492 M 141.23957 21.97629 L 141.23957 5.459492 " stroke="#394d54" stroke-width="1.56" stroke-opacity="1" stroke-miterlimit="4"/></g></g><g clip-path="url(#81cbf12fe2)"><g clip-path="url(#64e0915462)"><path fill="#00acd3" d="M 135.019531 182.835938 L 166.6875 182.835938 L 166.6875 151.175781 L 135.015625 151.175781 Z M 135.019531 182.835938 " fill-opacity="1" fill-rule="nonzero"/></g></g><g clip-path="url(#a23d62bfe4)"><g clip-path="url(#c2f8a62244)"><path fill="#20c2ef" d="M 135.019531 146.289062 L 166.6875 146.289062 L 166.6875 114.628906 L 135.015625 114.628906 Z M 135.019531 146.289062 " fill-opacity="1" fill-rule="nonzero"/></g></g><g clip-path="url(#695a54d773)"><g clip-path="url(#64e302189e)"><path fill="#000000" d="M 138.902344 153.796875 L 138.902344 180.183594 M 143.652344 153.796875 L 143.652344 180.183594 M 148.449219 153.796875 L 148.449219 180.183594 M 153.246094 153.796875 L 153.246094 180.183594 M 158.046875 153.796875 L 158.046875 180.183594 M 162.792969 153.796875 L 162.792969 180.183594 " fill-opacity="1" fill-rule="nonzero"/></g></g><g clip-path="url(#e7a48f8534)"><g clip-path="url(#70c46025b6)"><path stroke-linecap="butt" transform="matrix(1.598102, 0, 0, -1.597569, -62.922999, 188.906268)" fill="none" stroke-linejoin="miter" d="M 126.290682 21.976766 L 126.290682 5.459968 M 129.262958 21.976766 L 129.262958 5.459968 M 132.264566 21.976766 L 132.264566 5.459968 M 135.266175 21.976766 L 135.266175 5.459968 M 138.270227 21.976766 L 138.270227 5.459968 M 141.240059 21.976766 L 141.240059 5.459968 " stroke="#394d54" stroke-width="1.56" stroke-opacity="1" stroke-miterlimit="4"/></g></g><g clip-path="url(#1f6896d9a1)"><g clip-path="url(#41c12c03b2)"><path fill="#000000" d="M 138.902344 117.265625 L 138.902344 143.652344 M 143.652344 117.269531 L 143.652344 143.652344 M 148.449219 117.269531 L 148.449219 143.652344 M 153.246094 117.269531 L 153.246094 143.652344 M 158.046875 117.269531 L 158.046875 143.652344 M 162.792969 117.269531 L 162.792969 143.652344 " fill-opacity="1" fill-rule="nonzero"/></g></g><g clip-path="url(#86e5a20056)"><g clip-path="url(#6c10f551e0)"><path stroke-linecap="butt" transform="matrix(1.598102, 0, 0, -1.597569, -62.922999, 152.376259)" fill="none" stroke-linejoin="miter" d="M 126.290682 21.977543 L 126.290682 5.460745 M 129.262958 21.975098 L 129.262958 5.460745 M 132.264566 21.975098 L 132.264566 5.460745 M 135.266175 21.975098 L 135.266175 5.460745 M 138.270227 21.975098 L 138.270227 5.460745 M 141.240059 21.975098 L 141.240059 5.460745 " stroke="#394d54" stroke-width="1.56" stroke-opacity="1" stroke-miterlimit="4"/></g></g><g clip-path="url(#dc4e7681bc)"><g clip-path="url(#043a226fbb)"><path fill="#00acd3" d="M 171.558594 114.613281 L 203.230469 114.613281 L 203.230469 146.269531 L 171.558594 146.269531 Z M 171.558594 114.613281 " fill-opacity="1" fill-rule="nonzero"/></g></g><g clip-path="url(#49d3f9ad5c)"><g clip-path="url(#b027a2318d)"><path fill="#20c2ef" d="M 171.558594 151.15625 L 203.230469 151.15625 L 203.230469 182.820312 L 171.558594 182.820312 Z M 171.558594 151.15625 " fill-opacity="1" fill-rule="nonzero"/></g></g><g clip-path="url(#383c5c2cc9)"><g clip-path="url(#4471896fe4)"><path fill="#000000" d="M 175.445312 143.652344 L 175.445312 117.265625 M 180.191406 143.648438 L 180.191406 117.265625 M 184.992188 143.648438 L 184.992188 117.265625 M 189.789062 143.648438 L 189.789062 117.265625 M 194.589844 143.648438 L 194.589844 117.265625 M 199.335938 143.648438 L 199.335938 117.265625 " fill-opacity="1" fill-rule="nonzero"/></g></g><g clip-path="url(#294bd4c731)"><g clip-path="url(#8c4cd1ea56)"><path stroke-linecap="butt" transform="matrix(1.598102, 0, 0, 1.597569, -26.380804, 108.541046)" fill="none" stroke-linejoin="miter" d="M 126.291166 21.977958 L 126.291166 5.46116 M 129.260998 21.975513 L 129.260998 5.46116 M 132.26505 21.975513 L 132.26505 5.46116 M 135.266659 21.975513 L 135.266659 5.46116 M 138.270711 21.975513 L 138.270711 5.46116 M 141.240544 21.975513 L 141.240544 5.46116 " stroke="#394d54" stroke-width="1.56" stroke-opacity="1" stroke-miterlimit="4"/></g></g><g clip-path="url(#c37d6cf8e3)"><g clip-path="url(#c54295c046)"><path fill="#000000" d="M 175.445312 180.179688 L 175.445312 153.792969 M 180.191406 180.179688 L 180.191406 153.792969 M 184.992188 180.179688 L 184.992188 153.792969 M 189.789062 180.179688 L 189.789062 153.792969 M 194.589844 180.179688 L 194.589844 153.792969 M 199.335938 180.179688 L 199.335938 153.792969 " fill-opacity="1" fill-rule="nonzero"/></g></g><g clip-path="url(#aa0a3e2afc)"><g clip-path="url(#efde72d883)"><path stroke-linecap="butt" transform="matrix(1.598102, 0, 0, 1.597569, -26.380804, 145.071055)" fill="none" stroke-linejoin="miter" d="M 126.291166 21.97629 L 126.291166 5.459492 M 129.260998 21.97629 L 129.260998 5.459492 M 132.26505 21.97629 L 132.26505 5.459492 M 135.266659 21.97629 L 135.266659 5.459492 M 138.270711 21.97629 L 138.270711 5.459492 M 141.240544 21.97629 L 141.240544 5.459492 " stroke="#394d54" stroke-width="1.56" stroke-opacity="1" stroke-miterlimit="4"/></g></g><g clip-path="url(#b76dc2fe01)"><g clip-path="url(#5d5546e223)"><path fill="#00acd3" d="M 208.101562 182.835938 L 239.773438 182.835938 L 239.773438 151.175781 L 208.097656 151.175781 Z M 208.101562 182.835938 " fill-opacity="1" fill-rule="nonzero"/></g></g><g clip-path="url(#910bc07ebf)"><g clip-path="url(#827a054143)"><path fill="#20c2ef" d="M 208.101562 146.289062 L 239.773438 146.289062 L 239.773438 114.628906 L 208.097656 114.628906 Z M 208.101562 146.289062 " fill-opacity="1" fill-rule="nonzero"/></g></g><g clip-path="url(#e1930b0948)"><g clip-path="url(#2ac04412eb)"><path fill="#000000" d="M 211.984375 153.796875 L 211.984375 180.183594 M 216.734375 153.796875 L 216.734375 180.183594 M 221.53125 153.796875 L 221.53125 180.183594 M 226.332031 153.796875 L 226.332031 180.183594 M 231.132812 153.796875 L 231.132812 180.183594 M 235.878906 153.796875 L 235.878906 180.183594 " fill-opacity="1" fill-rule="nonzero"/></g></g><g clip-path="url(#5defc16b94)"><g clip-path="url(#932b5da41a)"><path stroke-linecap="butt" transform="matrix(1.598102, 0, 0, -1.597569, 10.161387, 188.906268)" fill="none" stroke-linejoin="miter" d="M 126.289208 21.976766 L 126.289208 5.459968 M 129.261484 21.976766 L 129.261484 5.459968 M 132.263093 21.976766 L 132.263093 5.459968 M 135.267145 21.976766 L 135.267145 5.459968 M 138.271198 21.976766 L 138.271198 5.459968 M 141.24103 21.976766 L 141.24103 5.459968 " stroke="#394d54" stroke-width="1.56" stroke-opacity="1" stroke-miterlimit="4"/></g></g><g clip-path="url(#33d400713f)"><g clip-path="url(#7d09b7f061)"><path fill="#000000" d="M 211.984375 117.265625 L 211.984375 143.652344 M 216.734375 117.269531 L 216.734375 143.652344 M 221.53125 117.269531 L 221.53125 143.652344 M 226.332031 117.269531 L 226.332031 143.652344 M 231.132812 117.269531 L 231.132812 143.652344 M 235.878906 117.269531 L 235.878906 143.652344 " fill-opacity="1" fill-rule="nonzero"/></g></g><g clip-path="url(#0319f479ae)"><g clip-path="url(#efc6948dea)"><path stroke-linecap="butt" transform="matrix(1.598102, 0, 0, -1.597569, 10.161387, 152.376259)" fill="none" stroke-linejoin="miter" d="M 126.289208 21.977543 L 126.289208 5.460745 M 129.261484 21.975098 L 129.261484 5.460745 M 132.263093 21.975098 L 132.263093 5.460745 M 135.267145 21.975098 L 135.267145 5.460745 M 138.271198 21.975098 L 138.271198 5.460745 M 141.24103 21.975098 L 141.24103 5.460745 " stroke="#394d54" stroke-width="1.56" stroke-opacity="1" stroke-miterlimit="4"/></g></g><g clip-path="url(#576bb719a0)"><g clip-path="url(#38c330ae27)"><path fill="#17b5eb" d="M 327.710938 158.886719 C 330.160156 139.851562 315.910156 124.898438 307.074219 117.800781 C 296.886719 129.570312 295.304688 160.421875 311.285156 173.40625 C 302.367188 181.324219 283.578125 188.5 264.335938 188.5 L 27.945312 188.5 C 26.078125 208.578125 27.945312 305.257812 27.945312 305.257812 L 374.734375 305.257812 L 373.15625 159.199219 C 358.136719 150.535156 338.824219 153.296875 327.703125 158.886719 " fill-opacity="1" fill-rule="nonzero"/></g></g><g clip-path="url(#eeed008e4b)"><g clip-path="url(#33d101f7e5)"><path fill="#000000" d="M 27.953125 214.195312 L 27.953125 305.257812 L 374.742188 305.257812 L 374.742188 214.195312 " fill-opacity="0.17" fill-rule="nonzero"/></g></g><g clip-path="url(#536e034398)"><g clip-path="url(#760cebb981)"><path fill="#d4edf1" d="M 151.390625 297.109375 C 129.753906 286.84375 117.875 272.890625 111.269531 257.65625 L 45.535156 260.519531 L 79.09375 305.25 L 151.386719 297.101562 " fill-opacity="1" fill-rule="nonzero"/></g></g><g clip-path="url(#15694861f0)"><g clip-path="url(#bead868e1a)"><path fill="#000000" d="M 329.195312 158.179688 L 329.195312 158.230469 C 295.859375 201.203125 248.039062 238.714844 196.703125 258.429688 C 150.910156 276.015625 110.984375 276.097656 83.4375 261.976562 C 80.472656 260.300781 77.566406 258.441406 74.648438 256.683594 C 54.453125 242.574219 43.082031 219.238281 44.035156 188.488281 L 27.960938 188.488281 L 27.960938 305.257812 L 374.746094 305.257812 L 374.746094 151.890625 L 334.796875 151.890625 Z M 329.195312 158.179688 " fill-opacity="0.085" fill-rule="nonzero"/></g></g><path stroke-linecap="round" transform="matrix(8.654292, 0, 0, 8.651405, -52.953808, 175.810623)" fill="none" stroke-linejoin="miter" d="M 11.495911 9.612998 C 14.112026 9.756129 16.90282 9.78322 19.337938 9.018803 " stroke="#394d54" stroke-width="0.628" stroke-opacity="1" stroke-miterlimit="4"/><path fill="#d4edf1" d="M 136.894531 242.886719 C 136.894531 243.457031 136.839844 244.027344 136.726562 244.585938 C 136.613281 245.148438 136.449219 245.695312 136.226562 246.222656 C 136.007812 246.753906 135.738281 247.257812 135.421875 247.734375 C 135.101562 248.210938 134.742188 248.648438 134.335938 249.054688 C 133.929688 249.460938 133.488281 249.820312 133.011719 250.140625 C 132.535156 250.457031 132.03125 250.726562 131.503906 250.949219 C 130.972656 251.167969 130.429688 251.332031 129.867188 251.445312 C 129.304688 251.558594 128.738281 251.613281 128.164062 251.613281 C 127.589844 251.613281 127.023438 251.558594 126.460938 251.445312 C 125.894531 251.335938 125.351562 251.167969 124.820312 250.949219 C 124.289062 250.730469 123.785156 250.460938 123.308594 250.144531 C 122.832031 249.824219 122.390625 249.464844 121.984375 249.058594 C 121.578125 248.652344 121.21875 248.210938 120.898438 247.734375 C 120.578125 247.257812 120.308594 246.753906 120.089844 246.226562 C 119.871094 245.695312 119.703125 245.152344 119.59375 244.589844 C 119.480469 244.027344 119.421875 243.457031 119.421875 242.886719 C 119.421875 242.3125 119.476562 241.742188 119.589844 241.179688 C 119.703125 240.617188 119.867188 240.070312 120.085938 239.542969 C 120.308594 239.011719 120.578125 238.507812 120.894531 238.03125 C 121.214844 237.554688 121.578125 237.113281 121.984375 236.707031 C 122.386719 236.300781 122.828125 235.9375 123.308594 235.621094 C 123.785156 235.300781 124.289062 235.03125 124.816406 234.8125 C 125.347656 234.59375 125.894531 234.425781 126.457031 234.316406 C 127.019531 234.203125 127.589844 234.148438 128.164062 234.148438 C 128.738281 234.148438 129.304688 234.203125 129.867188 234.316406 C 130.429688 234.429688 130.976562 234.59375 131.503906 234.816406 C 132.035156 235.035156 132.539062 235.304688 133.015625 235.621094 C 133.492188 235.941406 133.933594 236.304688 134.339844 236.710938 C 134.742188 237.113281 135.105469 237.554688 135.425781 238.03125 C 135.742188 238.511719 136.011719 239.011719 136.230469 239.542969 C 136.449219 240.074219 136.617188 240.617188 136.726562 241.179688 C 136.839844 241.742188 136.894531 242.3125 136.894531 242.886719 Z M 136.894531 242.886719 " fill-opacity="1" fill-rule="nonzero"/><path fill="#394d54" d="M 130.515625 237.0625 C 129.753906 237.496094 129.238281 238.324219 129.238281 239.277344 C 129.238281 240.6875 130.378906 241.828125 131.789062 241.828125 C 132.757812 241.828125 133.519531 241.292969 134.039062 240.496094 C 134.355469 241.265625 134.515625 242.0625 134.515625 242.894531 C 134.515625 246.355469 131.710938 249.148438 128.257812 249.148438 C 124.804688 249.148438 122 246.34375 122 242.894531 C 122 239.441406 124.804688 236.636719 128.257812 236.636719 C 129.039062 236.636719 129.796875 236.777344 130.527344 237.0625 Z M -26.386719 216.039062 L 380.054688 216.039062 C 371.203125 213.789062 352.058594 210.847656 355.21875 199.167969 C 339.121094 217.789062 300.3125 212.148438 290.527344 203.046875 C 279.621094 218.859375 216.125 212.847656 211.703125 200.449219 C 198.03125 216.488281 155.667969 216.488281 141.992188 200.449219 C 137.5625 212.769531 74.074219 218.789062 63.238281 203.046875 C 53.355469 212.148438 14.550781 217.796875 -1.546875 199.167969 C 1.613281 210.761719 -17.539062 213.875 -26.386719 216.039062 " fill-opacity="1" fill-rule="nonzero"/></svg>